<svg version="1.1" id="Layer_1" xmlns="http://www.w3.org/2000/svg" xmlns:xlink="http://www.w3.org/1999/xlink" x="0px" y="0px"
	 width="100%" viewBox="0 0 900 817" enable-background="new 0 0 900 817" xml:space="preserve">
<path fill="#FFFFFF" opacity="1.000000" stroke="none" 
	d="
M901.000000,276.000000 
	C901.000000,456.999908 901.000000,637.499817 901.000000,817.999817 
	C601.000183,817.999878 301.000397,817.999878 1.000451,817.999939 
	C1.000301,545.666992 1.000301,273.333954 1.000150,1.000707 
	C300.999542,1.000471 600.999084,1.000471 900.999329,1.000236 
	C901.000000,92.500000 901.000000,184.000000 901.000000,276.000000 
M490.000549,354.499878 
	C490.000580,360.332520 489.974548,366.165283 490.007294,371.997742 
	C490.046356,378.954193 491.087921,379.997711 497.893616,379.997955 
	C564.553894,380.000488 631.214355,379.934692 697.874146,380.115204 
	C703.569885,380.130615 705.021423,378.245697 705.019043,372.897461 
	C704.989197,306.237183 705.004211,239.576920 704.991028,172.916641 
	C704.989929,167.278763 703.709778,166.031708 698.042786,166.007980 
	C690.774658,165.977554 683.506226,166.000595 675.999512,166.000595 
	C675.999512,153.456390 676.000244,141.482117 675.999207,129.507828 
	C675.998596,122.406708 673.912415,120.647469 666.342590,121.355598 
	C665.828369,136.181625 665.314209,151.007645 664.805725,165.669098 
	C658.955322,165.669098 653.549622,165.669098 648.198120,165.669098 
	C647.684021,150.626770 647.181274,135.916489 646.678894,121.215866 
	C638.909546,120.847473 637.006409,122.548691 637.002319,129.803711 
	C636.995605,141.750519 637.000488,153.697311 637.000488,165.757935 
	C610.471191,165.757935 584.404297,165.757935 557.999512,165.757935 
	C557.999512,153.555145 558.000000,141.592316 557.999329,129.629501 
	C557.998962,122.445511 556.096985,120.786285 548.311646,121.259071 
	C547.793274,136.077560 547.274353,150.909836 546.756592,165.712067 
	C541.044617,165.712067 535.642578,165.712067 530.257080,165.712067 
	C529.738342,150.720642 529.229553,136.016953 528.721130,121.324623 
	C521.096436,120.710953 519.011292,122.516319 519.002380,129.682205 
	C518.993652,136.681519 519.000488,143.680862 519.000488,150.680191 
	C519.000488,155.766205 519.000488,160.852203 519.000488,166.000580 
	C511.775055,166.000580 505.278778,166.000183 498.782532,166.000656 
	C491.485199,166.001205 490.001923,167.517151 490.001648,175.017105 
	C489.999634,234.511398 490.000549,294.005676 490.000549,354.499878 
M488.219208,583.276672 
	C488.148529,583.768738 488.015991,584.260864 488.015930,584.752930 
	C488.004547,651.732300 487.993134,718.711731 488.019226,785.691101 
	C488.021271,791.019531 490.151123,792.996582 495.488373,792.996887 
	C562.301147,793.000916 629.114075,792.935730 695.926392,793.115845 
	C701.509399,793.130920 703.024414,791.275146 703.021667,785.847839 
	C702.987671,719.201660 703.004333,652.555542 702.991028,585.909363 
	C702.989868,580.281311 701.703857,579.031311 696.038086,579.007812 
	C688.771484,578.977661 681.504639,579.000488 673.999512,579.000488 
	C673.999512,566.292175 674.001892,554.153809 673.998535,542.015442 
	C673.996826,535.631348 671.896729,533.768799 665.286499,534.330811 
	C664.767151,549.146790 664.247498,563.973755 663.731873,578.684753 
	C657.653015,578.684753 651.915894,578.684753 646.202332,578.684753 
	C645.686768,563.668518 645.182068,548.967468 644.677795,534.278931 
	C637.058533,533.681763 635.006897,535.489380 635.002441,542.745483 
	C634.995178,554.695862 635.000488,566.646179 635.000488,578.786987 
	C608.522278,578.786987 582.459351,578.786987 555.999512,578.786987 
	C555.999512,566.458435 556.001160,554.339050 555.998962,542.219666 
	C555.997681,535.122864 553.537842,533.212585 546.272888,534.600830 
	C545.761719,549.295654 545.250916,563.978394 544.737061,578.750732 
	C539.121887,578.750732 533.720642,578.750732 528.269409,578.750732 
	C527.737976,563.697266 527.215149,548.887390 526.693298,534.104492 
	C518.753723,533.892883 517.006836,535.565247 517.000977,543.058716 
	C516.998108,546.724243 517.000488,550.389771 517.000488,554.055298 
	C517.000488,562.313293 517.000488,570.571289 517.000488,579.000549 
	C509.049347,579.000549 501.719696,578.751770 494.428070,579.168274 
	C492.505432,579.278076 490.700134,581.442749 488.219208,583.276672 
M880.242737,633.271606 
	C877.798584,632.178650 875.386841,630.237244 872.904602,630.142700 
	C863.252014,629.774902 853.576599,629.930969 843.910767,630.017700 
	C838.248047,630.068481 835.713745,632.331604 835.581055,637.078674 
	C835.438538,642.174377 837.973450,644.673523 843.734924,644.871460 
	C847.445007,644.998901 851.162964,644.895325 854.877380,644.895325 
	C851.965942,648.563110 848.919800,651.281067 845.646851,653.691101 
	C832.181030,663.606689 813.928040,661.764587 804.585938,649.085388 
	C799.366211,642.001038 792.992493,636.846252 785.019653,633.437439 
	C766.407715,625.479919 739.522644,631.350952 729.381226,651.040527 
	C728.897217,651.980286 728.026978,653.569458 728.359985,653.942383 
	C730.343140,656.163452 732.310669,658.821777 734.890930,659.979431 
	C738.131226,661.433350 741.058899,659.990295 743.383728,656.808655 
	C755.217163,640.614197 780.181458,640.948669 791.720398,657.282715 
	C796.641846,664.249268 802.976013,669.727417 811.216309,671.945435 
	C818.936523,674.023376 826.978882,674.904419 835.284546,676.384399 
	C836.686218,688.785522 847.937439,681.792786 855.505432,684.761353 
	C851.576965,687.713257 848.115479,690.431702 844.535278,692.983521 
	C831.233032,702.464783 814.871765,700.867554 804.930054,688.166382 
	C797.399780,678.545898 788.266907,672.621582 776.458679,669.675720 
	C759.421387,665.425415 737.283020,674.429382 728.946655,689.882751 
	C728.445190,690.812378 727.962708,692.592957 728.414185,693.053711 
	C730.617126,695.301697 732.885132,698.269226 735.632690,698.947815 
	C737.763245,699.474060 741.507568,697.691711 743.039185,695.753662 
	C756.090149,679.239685 779.607971,679.732361 792.240356,696.598816 
	C795.616760,701.106934 800.370178,704.901672 805.170410,707.957153 
	C814.247009,713.734558 824.525574,715.140808 835.195251,713.675171 
	C836.697021,727.199585 848.035706,720.432556 855.048950,723.294373 
	C852.100037,725.781067 849.632263,727.977295 847.045715,730.023438 
	C833.520935,740.722717 814.425415,739.453186 804.653259,726.532715 
	C798.591797,718.518555 791.192871,713.204590 781.907043,709.634521 
	C765.419678,703.295654 741.764099,709.800293 731.636841,724.195679 
	C730.121094,726.350220 727.908264,729.802490 728.667603,731.374146 
	C729.996216,734.123901 733.101990,736.922913 735.998535,737.696594 
	C738.019409,738.236267 741.870850,736.080566 743.301025,734.017334 
	C755.031799,717.092896 781.868652,719.868103 791.775330,734.677002 
	C801.789124,749.645996 825.992798,758.647400 844.438232,748.469788 
	C851.746216,744.437317 858.647400,739.667419 865.931030,735.109802 
	C865.931030,738.128906 865.519653,741.474548 866.065613,744.655884 
	C866.477600,747.056641 867.515930,750.080811 869.318481,751.374878 
	C874.695496,755.235046 880.700317,751.656738 880.744080,744.582642 
	C880.816467,732.899780 880.165894,721.208740 880.380493,709.531433 
	C880.616516,696.686096 881.047546,683.874146 880.368774,671.009644 
	C879.870422,661.564575 880.654602,652.053711 880.806702,642.571289 
	C880.852722,639.699829 880.696533,636.825195 880.242737,633.271606 
M397.451996,253.284378 
	C403.356812,253.681305 409.261597,254.078232 415.177002,254.475861 
	C416.574280,261.496246 418.223694,262.836121 425.611481,262.879272 
	C428.652008,262.897003 431.692749,262.882202 434.733398,262.882202 
	C431.375336,266.882263 427.773163,269.747742 424.041321,272.433044 
	C411.236084,281.647278 393.237457,279.239044 384.147461,266.305206 
	C373.282104,250.845230 350.244324,242.450394 329.488861,251.172226 
	C321.922211,254.351868 315.205963,259.000458 310.745483,266.164001 
	C308.137146,270.352997 309.018188,274.953979 312.496582,277.295502 
	C315.976288,279.637909 320.353027,278.571533 323.327362,274.656586 
	C335.775208,258.272369 359.964478,258.717438 372.022797,275.460327 
	C373.839630,277.983002 376.026703,280.336945 378.402740,282.342133 
	C389.018921,291.301239 401.372009,294.447784 415.179169,292.685333 
	C416.554169,306.145630 427.778778,299.590668 435.074860,302.247681 
	C432.215942,304.661255 429.763611,306.811523 427.228149,308.858826 
	C413.545715,319.906738 393.465393,318.361023 384.183929,304.953491 
	C371.994354,287.345001 345.931000,280.225555 325.554626,291.763458 
	C319.839752,294.999420 314.925537,300.146484 310.647125,305.256714 
	C307.521973,308.989471 309.040405,313.428162 312.633118,315.642578 
	C316.773346,318.194580 320.387909,317.578461 323.357758,313.172180 
	C334.940094,295.987823 361.882111,298.923096 371.713837,313.604218 
	C381.818420,328.692780 405.989044,337.593384 424.353668,327.512360 
	C431.681641,323.489807 438.595459,318.712769 445.957062,314.117340 
	C445.957062,317.403381 445.729767,321.010864 446.006592,324.579254 
	C446.510651,331.077209 452.811035,334.137329 457.835205,330.114838 
	C459.485901,328.793213 460.400757,325.944366 460.713531,323.665131 
	C462.068146,313.793854 458.509766,303.582306 462.695557,293.847321 
	C462.873138,293.434296 461.934967,292.588501 461.608521,291.900665 
	C461.120911,290.873383 460.326385,289.803986 460.335205,288.758209 
	C460.415375,279.273712 460.548187,269.786987 460.902679,260.309753 
	C460.975769,258.355316 463.110229,255.316437 462.458740,254.691620 
	C459.120209,251.489761 460.612579,247.798279 460.915985,244.436539 
	C461.751129,235.183304 458.472046,225.650833 462.757568,216.630539 
	C462.930115,216.267349 462.767700,215.561554 462.505005,215.203461 
	C459.946259,211.715546 457.417572,208.659592 452.216217,208.882706 
	C443.066437,209.275162 433.887573,208.959961 424.721191,209.003555 
	C418.270660,209.034241 415.631622,211.180923 415.579285,216.268188 
	C415.524109,221.632904 418.169128,223.810944 424.923828,223.895035 
	C428.263031,223.936615 431.603210,223.902267 434.942932,223.902267 
	C431.767975,227.744781 428.561096,230.607834 425.057312,233.043808 
	C411.347229,242.575516 393.662140,240.469559 384.419769,227.973450 
	C372.083862,211.294693 355.458710,206.429398 335.931824,210.360138 
	C325.709625,212.417862 317.270905,218.139954 311.107574,226.706619 
	C308.089783,230.901154 308.834686,235.993988 312.330811,238.244583 
	C316.128754,240.689484 320.414062,239.635529 323.513397,235.494339 
	C334.836029,220.365509 358.303589,219.537964 370.275177,234.669617 
	C377.407166,243.684204 385.808624,249.863174 397.451996,253.284378 
M359.500000,697.051636 
	C387.239990,697.051636 414.980011,697.051636 443.571564,697.051636 
	C442.499359,698.319641 442.051086,698.935181 441.518677,699.466431 
	C434.562958,706.407104 427.544067,713.285461 420.652435,720.289062 
	C417.245911,723.750977 417.144867,727.589233 420.078644,730.344849 
	C422.935883,733.028564 427.009521,732.734375 430.222351,729.545166 
	C441.387115,718.462585 452.533386,707.361267 463.688721,696.269104 
	C467.985626,691.996643 468.031647,689.159668 463.763580,684.870422 
	C460.134949,681.223755 456.439667,677.643433 452.782532,674.025024 
	C445.107269,666.431091 437.532135,658.732544 429.724243,651.277649 
	C426.078156,647.796448 422.899017,647.950989 419.803253,651.407654 
	C417.016876,654.518982 417.286316,657.627991 420.378357,660.565918 
	C422.774506,662.842651 424.920532,665.381775 427.304688,667.672058 
	C432.581329,672.740845 437.937897,677.726440 443.261841,682.745972 
	C442.950745,683.155029 442.639618,683.564148 442.328522,683.973206 
	C440.702515,683.973206 439.076508,683.973145 437.450500,683.973145 
	C392.638947,683.973389 347.827393,683.969543 303.015839,683.979248 
	C297.685181,683.980408 295.047974,686.182617 295.005432,690.558533 
	C294.962219,695.002747 297.429688,697.038574 303.026978,697.044312 
	C321.517975,697.063110 340.009003,697.051575 359.500000,697.051636 
M885.314636,316.824921 
	C887.742798,314.331238 890.144531,311.811096 892.604980,309.349640 
	C897.055359,304.897461 897.038696,302.108185 892.492004,297.608887 
	C888.837219,293.992249 885.207031,290.350800 881.548584,286.737793 
	C873.869141,279.153534 866.219299,271.538483 858.472229,264.023743 
	C855.299683,260.946289 851.908142,261.072113 848.910828,264.311768 
	C846.074402,267.377716 846.191772,270.449036 849.272644,273.458405 
	C853.055359,277.153503 856.696167,280.993683 860.406616,284.762970 
	C864.192261,288.608521 867.987915,292.444183 872.459473,296.973175 
	C844.799011,296.973175 818.490723,296.973083 792.182434,296.973206 
	C772.033752,296.973328 751.884521,297.049774 731.736877,296.904297 
	C728.087036,296.877960 725.563416,297.930237 724.334595,301.374908 
	C722.575745,306.305298 725.774658,310.039062 731.797119,310.041504 
	C776.757019,310.059723 821.716858,310.051605 866.676758,310.051727 
	C868.398193,310.051727 870.119629,310.051697 872.844360,310.051697 
	C864.390747,318.519135 856.745605,326.122528 849.168701,333.793365 
	C846.256531,336.741638 846.121887,340.008514 848.882141,343.113556 
	C851.334961,345.872742 855.961487,345.911133 858.723145,343.178284 
	C867.429077,334.563019 876.054077,325.865967 885.314636,316.824921 
M454.424927,445.981476 
	C452.773499,445.981476 451.122040,445.981476 449.203735,445.981476 
	C449.052612,447.367157 448.923401,448.551910 448.847290,449.249634 
	C445.661957,447.786652 442.738220,445.674896 439.543884,445.119537 
	C429.568939,443.385345 421.449402,448.771851 418.523163,458.422302 
	C415.084412,469.763000 419.360962,482.288727 428.041779,486.260254 
	C428.790497,486.602783 429.577393,486.875946 430.367249,487.112000 
	C437.462433,489.232513 443.639496,487.690033 448.927460,481.664246 
	C448.927460,484.262543 449.050903,486.100037 448.902008,487.915161 
	C448.583527,491.797882 447.190704,495.758484 443.158325,496.298706 
	C439.157684,496.834656 433.255371,497.086700 431.143738,494.769226 
	C427.340454,490.595245 423.614319,491.140625 419.334564,491.306213 
	C419.224335,491.786499 419.079132,492.110352 419.093750,492.426788 
	C419.116547,492.919647 419.188446,493.426971 419.342133,493.894470 
	C421.879486,501.612549 428.124481,503.871460 435.296814,504.313660 
	C446.731476,505.018585 458.228088,502.536957 458.464569,485.329681 
	C458.631500,473.186096 458.466217,461.038147 458.597778,448.893738 
	C458.625763,446.312653 457.520050,445.707825 454.424927,445.981476 
M310.388062,91.015137 
	C316.764862,98.391518 325.050995,98.659988 333.724609,97.140976 
	C341.710876,95.742332 346.870392,91.349709 347.226562,83.404968 
	C347.879547,68.840698 347.412628,54.226223 347.412628,38.865734 
	C343.943298,40.536270 338.810577,35.854523 337.493683,42.954765 
	C327.812561,34.405869 313.379730,37.357117 309.079437,49.331539 
	C307.171570,54.644104 307.050049,61.149841 307.977661,66.809074 
	C309.676056,77.170403 317.664612,82.550461 327.934326,80.949699 
	C331.419647,80.406441 334.627563,78.083389 338.129913,76.497726 
	C338.129913,77.843346 338.169769,79.469048 338.122040,81.092171 
	C338.005676,85.049385 336.638184,88.421593 332.663910,89.772156 
	C328.266052,91.266663 322.992676,91.957001 320.107391,88.080521 
	C316.602081,83.370956 312.839142,84.447662 308.067627,84.894058 
	C308.825439,87.026947 309.420776,88.702530 310.388062,91.015137 
M332.116302,484.692810 
	C332.909668,483.936890 333.703064,483.181000 335.138184,481.813690 
	C335.138184,484.227325 335.148499,485.820068 335.136139,487.412567 
	C335.105743,491.339203 334.056732,495.412781 329.963196,496.049774 
	C325.834534,496.692261 319.647308,497.123962 317.523621,494.781616 
	C313.716003,490.581848 310.074982,491.158142 304.590759,491.346924 
	C306.240448,494.475708 306.985626,497.665131 308.991547,499.379242 
	C316.756500,506.014740 325.911957,505.724152 334.865082,502.622070 
	C342.765137,499.884857 344.795044,492.938446 344.841248,485.320557 
	C344.913879,473.343781 344.870697,461.366180 344.842834,449.389008 
	C344.840302,448.300262 344.593231,447.212097 344.467133,446.183929 
	C335.597992,445.677856 335.597992,445.677856 334.460938,449.497101 
	C323.770721,440.423431 308.439941,444.844177 305.127319,458.525238 
	C303.856110,463.775452 304.005341,469.886536 305.333313,475.144104 
	C308.319977,486.968536 320.859039,491.394775 332.116302,484.692810 
M201.955124,78.754028 
	C210.215759,82.740265 217.899216,82.536407 224.984085,74.649139 
	C224.747559,77.936989 224.691513,80.243828 224.393188,82.518898 
	C223.897247,86.301270 221.947968,89.020241 218.134583,90.061005 
	C213.761673,91.254463 208.746124,91.622612 206.140762,87.821259 
	C202.789902,82.932167 199.033981,84.715118 194.992828,84.823494 
	C195.968933,92.468864 199.861206,96.192970 208.992615,97.412849 
	C224.215698,99.446518 235.196014,93.643852 234.061127,76.677132 
	C233.739883,71.874420 234.012009,67.032021 234.012009,62.207817 
	C234.012009,54.615726 234.012009,47.023636 234.012009,39.380257 
	C230.656281,39.380257 227.911682,39.380257 225.054367,39.380257 
	C224.898956,40.830147 224.767685,42.054741 224.620361,43.429173 
	C215.184464,35.858009 204.319778,36.552608 197.720306,44.948788 
	C190.295364,54.395172 192.055008,70.556274 201.955124,78.754028 
M60.821259,437.518829 
	C60.821259,441.520325 60.821259,445.521851 60.821259,450.099274 
	C47.311539,439.990723 32.011181,445.182281 29.410280,460.314331 
	C28.536667,465.397003 28.854088,471.099609 30.233149,476.073578 
	C33.832569,489.055786 49.842407,493.409302 59.934391,484.632507 
	C60.142967,484.451111 60.519421,484.462738 60.826912,484.381866 
	C61.096943,485.574493 61.363621,486.752350 61.597954,487.787323 
	C64.567513,487.787323 67.179588,487.787323 69.945679,487.787323 
	C69.945679,468.502838 69.945679,449.440521 69.945679,430.294281 
	C66.813927,430.294281 63.924114,430.294281 60.821247,430.294281 
	C60.821247,432.577484 60.821247,434.558746 60.821259,437.518829 
M235.288651,449.843262 
	C233.993637,452.672333 232.698608,455.501434 231.153778,458.876251 
	C235.279877,458.876251 238.072647,458.876251 240.794815,458.876251 
	C243.722717,453.017303 247.746674,450.883270 253.754303,452.864349 
	C255.811264,453.542664 257.228546,456.160736 258.938110,457.892548 
	C257.248108,459.405334 255.788040,461.681641 253.820892,462.274048 
	C249.558929,463.557556 244.984604,463.758972 240.633759,464.802155 
	C233.029633,466.625397 229.594147,471.118683 230.319138,477.736389 
	C231.046219,484.373077 236.021530,489.109375 243.375748,488.860535 
	C248.643082,488.682312 253.862320,487.083282 259.718048,486.004913 
	C262.913971,489.716370 266.131409,490.314667 272.076477,487.499359 
	C272.076477,485.716949 272.076477,483.905090 272.076477,482.093201 
	C271.580872,482.286896 271.085266,482.480591 270.589661,482.674286 
	C269.679535,480.530304 268.112732,478.424744 267.984589,476.235016 
	C267.625153,470.092560 267.775452,463.913849 267.884674,457.752319 
	C267.978271,452.470856 265.723755,448.572418 260.875336,446.776917 
	C252.203156,443.565460 243.655594,443.456146 235.288651,449.843262 
M195.857681,446.028625 
	C195.857681,440.759644 195.857681,435.490631 195.857681,430.272278 
	C192.314362,430.272278 189.397232,430.272278 186.142319,430.272278 
	C186.142319,440.014374 186.142334,449.472870 186.142334,458.931366 
	C186.142334,468.530884 186.142319,478.130371 186.142319,487.748199 
	C189.646835,487.748199 192.564819,487.748199 195.857651,487.748199 
	C195.857651,486.189362 195.856339,484.893036 195.857880,483.596741 
	C195.866364,476.437561 195.708298,469.273071 195.937256,462.120911 
	C196.121353,456.370209 200.573822,452.151001 205.811829,452.235413 
	C210.996750,452.318970 213.638306,455.583557 213.804672,462.172577 
	C213.855103,464.169281 213.812973,466.168274 213.812988,468.166229 
	C213.813065,474.738586 213.813019,481.310974 213.813019,487.767090 
	C217.317444,487.767090 220.085617,487.767090 223.043854,487.767090 
	C223.043854,477.237000 223.281754,466.945282 222.958389,456.671204 
	C222.750305,450.059967 218.124313,445.835449 211.485504,444.966644 
	C205.649323,444.202881 200.542267,445.782379 195.857803,450.402771 
	C195.857803,448.565460 195.857803,447.735748 195.857681,446.028625 
M152.277374,41.127834 
	C138.227249,33.776562 122.674881,39.131607 121.408318,52.577358 
	C124.693169,52.055756 129.708908,52.532257 130.535965,50.894066 
	C133.232147,45.553623 137.414871,45.724449 141.919418,45.919300 
	C145.117661,46.057652 147.997421,47.082096 148.096085,50.984459 
	C148.190720,54.726929 145.409073,55.511555 142.431931,55.976067 
	C138.161911,56.642315 133.844452,57.125671 129.647644,58.113617 
	C122.131409,59.882969 119.058952,64.431023 119.875618,71.945053 
	C120.500992,77.699051 125.478333,82.285416 132.124802,82.035057 
	C137.587570,81.829292 143.004227,80.399971 149.017090,79.419029 
	C150.755951,83.254143 155.353683,82.750305 159.450867,81.692047 
	C160.787430,81.346840 161.342255,77.975060 162.666245,75.090752 
	C156.963715,75.365494 157.097794,72.343948 157.150848,69.175644 
	C157.251251,63.178543 157.663193,57.123283 156.987961,51.201385 
	C156.609512,47.882198 154.311752,44.781849 152.277374,41.127834 
M84.851486,23.921637 
	C82.019714,23.594595 79.187943,23.267553 76.066010,22.907000 
	C76.066010,42.675892 76.066010,61.712574 76.066010,80.960709 
	C79.028511,80.960709 81.772514,80.960709 85.004089,80.960709 
	C85.004089,74.569878 84.906631,68.292641 85.043900,62.020542 
	C85.115974,58.727139 85.099747,55.296413 86.010704,52.187714 
	C87.466255,47.220608 91.844437,44.974583 97.028374,45.947685 
	C101.992584,46.879536 103.017212,50.575878 102.996910,54.904438 
	C102.989891,56.401623 102.995895,57.898865 102.995903,59.396080 
	C102.995911,66.625526 102.995911,73.854973 102.995911,80.928558 
	C106.526405,80.928558 109.308533,80.928558 112.227745,80.928558 
	C112.227745,70.243660 112.537354,59.787552 112.107750,49.361900 
	C111.863091,43.424381 108.311081,40.160702 102.585724,38.710873 
	C95.983032,37.038879 90.274918,38.718475 84.990936,44.112553 
	C84.990936,37.085339 84.990936,30.966936 84.851486,23.921637 
M108.720940,454.059814 
	C112.781441,451.610870 117.996071,450.738678 120.690063,454.169250 
	C124.375381,458.862061 128.374237,458.003510 132.996841,457.843323 
	C132.960388,453.362793 131.075729,449.955536 127.420624,447.845306 
	C119.578552,443.317841 111.515953,443.704102 103.591896,447.675232 
	C99.636658,449.657410 97.942169,453.153717 98.145416,457.553619 
	C98.348587,461.952179 100.433365,465.197479 104.454872,466.935516 
	C106.719505,467.914246 109.190483,468.418091 111.572777,469.121399 
	C115.072723,470.154724 118.732262,470.839142 122.006340,472.356995 
	C123.430046,473.016998 124.968826,475.481323 124.802917,476.937988 
	C124.638359,478.382751 122.620041,480.238739 121.025887,480.790100 
	C114.279526,483.123505 109.181931,480.768005 106.166435,474.483093 
	C103.198196,474.483093 100.290154,474.483093 97.359726,474.483093 
	C98.176224,482.310059 101.078865,486.715332 108.086533,487.840454 
	C113.650963,488.733887 119.695480,488.542572 125.208351,487.354675 
	C131.656982,485.965149 135.025055,480.617737 134.779663,474.970703 
	C134.542755,469.519348 131.458038,465.992401 124.824188,464.030365 
	C120.682190,462.805359 116.392250,462.074951 112.263680,460.812073 
	C109.465736,459.956238 106.858116,458.544342 108.720940,454.059814 
M296.670410,42.917885 
	C288.389160,35.571472 280.208466,36.666241 272.153046,43.507549 
	C271.665009,41.875912 271.263611,40.533878 270.942719,39.461040 
	C267.975006,39.461040 265.392853,39.461040 262.768677,39.461040 
	C262.768677,53.498390 262.768677,67.202576 262.768677,80.922241 
	C266.012299,80.922241 268.920471,80.922241 272.044617,80.922241 
	C272.044617,72.327766 271.848358,64.008995 272.109436,55.704613 
	C272.303070,49.544670 276.569763,45.733433 282.346130,45.870930 
	C287.709747,45.998611 289.936981,48.869881 289.967194,55.854023 
	C290.003174,64.165070 289.975677,72.476402 289.975677,80.843781 
	C293.281219,80.843781 296.331512,80.843781 299.554077,80.843781 
	C299.554077,71.169785 299.751404,61.849701 299.441040,52.546555 
	C299.340118,49.520927 297.912781,46.539551 296.670410,42.917885 
M400.761353,461.183960 
	C400.761353,470.081421 400.761353,478.978882 400.761353,487.716003 
	C404.296844,487.716003 407.044098,487.716003 410.009796,487.716003 
	C410.009796,477.290680 410.139893,467.158997 409.961182,457.032715 
	C409.853485,450.931061 405.771545,446.262268 399.766357,445.193939 
	C393.788544,444.130463 388.126770,444.709045 383.805328,449.751099 
	C383.531586,450.070526 383.022888,450.188599 382.405090,450.516144 
	C382.227600,448.913361 382.075653,447.541382 381.940338,446.319366 
	C378.884796,446.319366 376.143127,446.319366 373.473755,446.319366 
	C373.473755,460.374512 373.473755,474.094330 373.473755,487.700958 
	C376.730438,487.700958 379.647003,487.700958 382.861359,487.700958 
	C382.861359,478.931305 382.734467,470.468079 382.907623,462.010986 
	C383.016388,456.699951 386.830536,452.787659 391.819489,452.297089 
	C396.633423,451.823730 399.286926,454.238739 400.761353,461.183960 
M46.222240,46.126396 
	C54.688187,45.403297 55.600658,45.901604 59.444397,53.305054 
	C62.255070,53.305054 65.032227,53.305054 69.313492,53.305054 
	C67.371941,49.563278 66.382095,46.144592 64.233536,43.777763 
	C55.169502,33.792912 36.421913,36.992687 30.973661,49.319675 
	C27.878387,56.322918 27.826050,63.585232 30.571823,70.677673 
	C34.038918,79.633339 43.028893,83.798767 54.145737,81.970909 
	C62.162556,80.652763 67.578865,74.182365 67.878349,65.384933 
	C64.981400,65.384933 62.093002,65.384933 59.243259,65.384933 
	C58.605518,66.997971 58.192139,68.459778 57.484592,69.761726 
	C54.269413,75.677963 46.491249,76.601357 41.867252,71.670990 
	C35.494110,64.875587 37.430130,51.206810 46.222240,46.126396 
M150.540649,487.169678 
	C165.327026,492.667877 177.089523,486.486542 178.783356,472.161194 
	C175.814484,472.161194 172.866455,472.161194 169.749863,472.161194 
	C169.349915,473.330078 169.299576,474.771515 168.558212,475.407959 
	C166.055099,477.556732 163.567017,480.233002 160.586472,481.187103 
	C156.826248,482.390747 153.510376,480.092926 151.278320,476.842865 
	C147.823853,471.812805 148.154419,461.339569 151.818817,456.429810 
	C155.651917,451.294098 165.364670,450.439789 167.642761,455.755615 
	C170.380402,462.143799 174.636658,459.778351 178.883728,460.058563 
	C177.857437,451.952972 173.820648,447.387970 166.303040,445.414124 
	C157.589600,443.126282 148.500885,445.877930 143.768387,452.236694 
	C135.758453,462.999023 138.627853,479.466919 150.540649,487.169678 
M819.905457,272.329285 
	C823.399902,266.298157 824.213318,259.595337 821.083862,253.668823 
	C815.067383,242.275085 808.138672,231.355469 801.393494,220.358734 
	C799.402527,217.112885 796.888062,217.302307 794.853760,220.635361 
	C788.819397,230.521988 782.487793,240.243683 776.857605,250.355682 
	C771.760620,259.510040 772.714050,268.690460 779.390076,276.841400 
	C785.970215,284.875183 796.121033,287.629761 805.780396,284.437897 
	C811.858765,282.429321 816.497498,278.655334 819.905457,272.329285 
M400.695892,664.142822 
	C406.743713,655.587646 407.461029,646.685547 402.278351,637.494202 
	C398.868439,631.446838 395.451538,625.394775 391.774170,619.509460 
	C388.595917,614.422852 385.045837,609.568665 380.586761,603.040161 
	C372.605499,616.771729 364.962280,628.910217 358.422455,641.616516 
	C355.332428,647.620239 356.156494,654.530884 359.631378,660.785950 
	C367.391296,674.754272 386.958710,679.640320 400.695892,664.142822 
M292.217987,446.648285 
	C290.510559,448.020599 288.803131,449.392944 286.867584,450.948639 
	C286.625977,449.073212 286.441864,447.644348 286.267700,446.292572 
	C283.210144,446.292572 280.477570,446.292572 277.780273,446.292572 
	C277.780273,460.340179 277.780273,474.068298 277.780273,487.697876 
	C281.034454,487.697876 283.942322,487.697876 287.024292,487.697876 
	C287.024292,481.558472 287.023041,475.743500 287.024536,469.928528 
	C287.027588,457.924927 290.285034,454.377045 302.046143,453.728821 
	C302.046143,450.955200 302.046143,448.172363 302.046143,444.400299 
	C298.782257,445.044586 295.805573,445.632172 292.217987,446.648285 
M166.817383,66.497513 
	C166.817383,71.271324 166.817383,76.045128 166.817383,80.849869 
	C170.210510,80.849869 173.083908,80.849869 176.182617,80.849869 
	C176.182617,75.047348 176.181213,69.575752 176.182877,64.104156 
	C176.187332,49.408428 181.736328,46.906853 191.243271,46.747028 
	C191.243271,43.979687 191.243271,41.214638 191.243271,38.454994 
	C184.688370,37.091145 180.187256,40.101059 176.087234,45.006283 
	C175.911163,42.819191 175.783005,41.227089 175.636261,39.404297 
	C172.725616,39.404297 169.992477,39.404297 166.817383,39.404297 
	C166.817383,48.269062 166.817383,56.883438 166.817383,66.497513 
M243.130356,68.479958 
	C243.130356,72.594536 243.130356,76.709114 243.130356,80.815346 
	C246.637482,80.815346 249.675507,80.815346 252.604446,80.815346 
	C252.604446,66.820694 252.604446,53.217415 252.604446,39.387386 
	C249.437653,39.387386 246.536942,39.387386 243.130356,39.387386 
	C243.130356,48.919434 243.130356,58.202538 243.130356,68.479958 
M80.214081,446.868073 
	C80.214081,460.436157 80.214081,474.004242 80.214081,487.661163 
	C83.612907,487.661163 86.632477,487.661163 89.552963,487.661163 
	C89.552963,473.600464 89.552963,459.904968 89.552963,446.158325 
	C86.432449,446.158325 83.628098,446.158325 80.214081,446.868073 
M362.110687,488.001160 
	C362.582703,487.440399 363.463470,486.882050 363.466736,486.318573 
	C363.544006,473.022369 363.526703,459.725677 363.526703,446.204590 
	C360.220978,446.204590 357.314514,446.204590 354.339172,446.204590 
	C354.339172,460.224274 354.339172,474.083252 354.339172,488.022308 
	C356.867188,488.022308 359.031891,488.022308 362.110687,488.001160 
M247.586426,32.205315 
	C249.211716,32.205315 250.836990,32.205315 252.451874,32.205315 
	C252.451874,28.967377 252.451874,26.138878 252.451874,23.499210 
	C249.143341,23.499210 246.258820,23.499210 243.263306,23.499210 
	C243.263306,26.479156 243.263306,29.090204 243.263306,31.898628 
	C244.497330,32.007561 245.616852,32.106388 247.586426,32.205315 
M359.350098,429.975708 
	C357.600739,429.975708 355.851379,429.975708 354.310303,429.975708 
	C354.310303,433.414001 354.310303,436.158661 354.310303,438.855225 
	C357.442963,438.855225 360.239471,438.855225 363.558533,438.855225 
	C363.558533,436.735809 363.414154,434.766449 363.593506,432.827087 
	C363.841675,430.143677 362.376495,429.748566 359.350098,429.975708 
M80.131508,432.666473 
	C80.131508,434.731598 80.131508,436.796722 80.131508,438.728394 
	C83.757942,438.728394 86.659462,438.728394 89.584610,438.728394 
	C89.584610,435.715698 89.584610,433.006287 89.584610,429.088837 
	C86.072227,430.076233 83.106560,430.909943 80.131508,432.666473 
z"/>
<path fill="#231F20" opacity="1.000000" stroke="none" 
	d="
M490.000549,353.999939 
	C490.000549,294.005676 489.999634,234.511398 490.001648,175.017105 
	C490.001923,167.517151 491.485199,166.001205 498.782532,166.000656 
	C505.278778,166.000183 511.775055,166.000580 519.000488,166.000580 
	C519.000488,160.852203 519.000488,155.766205 519.000488,150.680191 
	C519.000488,143.680862 518.993652,136.681519 519.002380,129.682205 
	C519.011292,122.516319 521.096436,120.710953 528.721130,121.324623 
	C529.229553,136.016953 529.738342,150.720642 530.257080,165.712067 
	C535.642578,165.712067 541.044617,165.712067 546.756592,165.712067 
	C547.274353,150.909836 547.793274,136.077560 548.311646,121.259071 
	C556.096985,120.786285 557.998962,122.445511 557.999329,129.629501 
	C558.000000,141.592316 557.999512,153.555145 557.999512,165.757935 
	C584.404297,165.757935 610.471191,165.757935 637.000488,165.757935 
	C637.000488,153.697311 636.995605,141.750519 637.002319,129.803711 
	C637.006409,122.548691 638.909546,120.847473 646.678894,121.215866 
	C647.181274,135.916489 647.684021,150.626770 648.198120,165.669098 
	C653.549622,165.669098 658.955322,165.669098 664.805725,165.669098 
	C665.314209,151.007645 665.828369,136.181625 666.343384,121.358009 
	C673.912415,120.647469 675.998596,122.406708 675.999207,129.507828 
	C676.000244,141.482117 675.999512,153.456390 675.999512,166.000595 
	C683.506226,166.000595 690.774658,165.977554 698.042786,166.007980 
	C703.709778,166.031708 704.989929,167.278763 704.991028,172.916641 
	C705.004211,239.576920 704.989197,306.237183 705.019043,372.897461 
	C705.021423,378.245697 703.569885,380.130615 697.874146,380.115204 
	C631.214355,379.934692 564.553894,380.000488 497.893616,379.997955 
	C491.087921,379.997711 490.046356,378.954193 490.007294,371.997742 
	C489.974548,366.165283 490.000580,360.332520 490.000549,353.999939 
M500.999329,302.500000 
	C500.999329,315.258667 500.999329,328.017334 500.999329,341.000671 
	C508.729462,341.000671 515.870972,340.981934 523.012390,341.006958 
	C528.144226,341.024933 529.982361,342.922058 529.995056,348.183380 
	C530.012512,355.430634 529.999390,362.677917 529.999390,369.645599 
	C575.446899,369.645599 620.168518,369.645599 665.000916,369.645599 
	C665.000916,362.466461 664.882141,355.639374 665.036133,348.818420 
	C665.175049,342.665375 667.005066,341.004700 672.997192,341.001526 
	C679.927185,340.997833 686.857178,341.000671 693.711365,341.000671 
	C693.711365,295.351715 693.711365,250.297531 693.711365,204.999298 
	C686.784363,204.999298 680.143982,205.000153 673.503540,204.999084 
	C666.637451,204.997955 665.009399,203.319244 665.002075,196.209122 
	C664.995239,189.594315 665.000610,182.979507 665.000610,176.215958 
	C619.831177,176.215958 575.110474,176.215958 529.999390,176.215958 
	C529.999390,183.547134 529.945190,190.669281 530.015930,197.790176 
	C530.076294,203.864395 528.109863,205.405167 522.979675,205.106094 
	C515.742676,204.684219 508.462738,204.999298 500.999329,204.999298 
	C500.999329,237.569809 500.999329,269.534912 500.999329,302.500000 
M501.000000,190.379944 
	C501.000000,191.818619 501.000000,193.257294 501.000000,194.741760 
	C507.243103,194.741760 512.970581,194.741760 518.740173,194.741760 
	C518.740173,188.419891 518.740173,182.359619 518.740173,176.262146 
	C512.749146,176.262146 507.021576,176.262146 501.000000,176.262146 
	C501.000000,180.815277 501.000000,185.109665 501.000000,190.379944 
M693.993713,193.280533 
	C693.993713,187.539337 693.993713,181.798157 693.993713,176.371613 
	C687.524902,176.371613 681.788940,176.371613 676.375122,176.371613 
	C676.375122,182.813751 676.375122,188.881485 676.375122,195.379562 
	C682.491821,194.983154 688.209778,194.612595 693.993713,193.280533 
M687.440796,370.000000 
	C689.540039,370.000000 691.639343,370.000000 693.722656,370.000000 
	C693.722656,363.717468 693.722656,357.990326 693.722656,352.278992 
	C687.714233,352.278992 681.987061,352.278992 676.280640,352.278992 
	C676.280640,358.289001 676.280640,364.016266 676.280640,370.000000 
	C679.857544,370.000000 683.159363,370.000000 687.440796,370.000000 
M512.437622,352.000000 
	C508.682220,352.000000 504.926849,352.000000 501.318176,352.000000 
	C501.318176,358.366180 501.318176,364.095337 501.318176,369.679291 
	C507.371368,369.679291 513.102234,369.679291 518.676270,369.679291 
	C518.676270,363.623810 518.676270,357.893311 518.676270,352.000000 
	C516.704651,352.000000 515.055969,352.000000 512.437622,352.000000 
z"/>
<path fill="#231F20" opacity="1.000000" stroke="none" 
	d="
M488.530090,582.970215 
	C490.700134,581.442749 492.505432,579.278076 494.428070,579.168274 
	C501.719696,578.751770 509.049347,579.000549 517.000488,579.000549 
	C517.000488,570.571289 517.000488,562.313293 517.000488,554.055298 
	C517.000488,550.389771 516.998108,546.724243 517.000977,543.058716 
	C517.006836,535.565247 518.753723,533.892883 526.693298,534.104492 
	C527.215149,548.887390 527.737976,563.697266 528.269409,578.750732 
	C533.720642,578.750732 539.121887,578.750732 544.737061,578.750732 
	C545.250916,563.978394 545.761719,549.295654 546.272888,534.600830 
	C553.537842,533.212585 555.997681,535.122864 555.998962,542.219666 
	C556.001160,554.339050 555.999512,566.458435 555.999512,578.786987 
	C582.459351,578.786987 608.522278,578.786987 635.000488,578.786987 
	C635.000488,566.646179 634.995178,554.695862 635.002441,542.745483 
	C635.006897,535.489380 637.058533,533.681763 644.677795,534.278931 
	C645.182068,548.967468 645.686768,563.668518 646.202332,578.684753 
	C651.915894,578.684753 657.653015,578.684753 663.731873,578.684753 
	C664.247498,563.973755 664.767151,549.146790 665.286499,534.330811 
	C671.896729,533.768799 673.996826,535.631348 673.998535,542.015442 
	C674.001892,554.153809 673.999512,566.292175 673.999512,579.000488 
	C681.504639,579.000488 688.771484,578.977661 696.038086,579.007812 
	C701.703857,579.031311 702.989868,580.281311 702.991028,585.909363 
	C703.004333,652.555542 702.987671,719.201660 703.021667,785.847839 
	C703.024414,791.275146 701.509399,793.130920 695.926392,793.115845 
	C629.114075,792.935730 562.301147,793.000916 495.488373,792.996887 
	C490.151123,792.996582 488.021271,791.019531 488.019226,785.691101 
	C487.993134,718.711731 488.004547,651.732300 488.015930,584.752930 
	C488.015991,584.260864 488.148529,583.768738 488.530090,582.970215 
M563.500000,783.000000 
	C596.924011,783.000000 630.348022,783.000000 664.000000,783.000000 
	C664.000000,774.931885 664.165894,767.449585 663.938721,759.979309 
	C663.799194,755.391296 665.693298,753.802368 670.141052,753.939575 
	C677.386475,754.163208 684.643860,754.000000 691.643066,754.000000 
	C691.643066,708.235657 691.643066,663.171204 691.643066,618.000000 
	C684.126099,618.000000 676.962097,617.862061 669.806824,618.051941 
	C665.528442,618.165466 663.842896,616.460327 663.947632,612.187439 
	C664.134094,604.578308 664.000000,596.961365 664.000000,589.240967 
	C618.468628,589.240967 573.405029,589.240967 528.000000,589.240967 
	C528.000000,596.773315 528.033020,604.070068 527.988770,611.366394 
	C527.957397,616.547485 526.515869,617.961609 521.261597,617.990051 
	C513.974609,618.029480 506.687256,618.000000 499.215240,618.000000 
	C499.215240,663.479553 499.215240,708.543152 499.215240,754.000000 
	C504.712097,754.000000 510.007721,754.139160 515.293701,753.972168 
	C527.677002,753.580933 528.391052,754.403442 528.027649,766.467102 
	C527.864136,771.895264 528.000000,777.332520 528.000000,783.000000 
	C539.884033,783.000000 551.192017,783.000000 563.500000,783.000000 
M692.000000,602.404053 
	C692.000000,597.988220 692.000000,593.572388 692.000000,589.328918 
	C685.611877,589.328918 679.881592,589.328918 674.330811,589.328918 
	C674.330811,595.726562 674.330811,601.791138 674.330811,607.843140 
	C680.272522,607.843140 685.882446,607.843140 692.000000,607.843140 
	C692.000000,606.270569 692.000000,604.823547 692.000000,602.404053 
M516.999451,591.685303 
	C516.217224,590.791077 515.469543,589.161194 514.647278,589.122620 
	C509.552673,588.883789 504.441376,589.002502 499.239166,589.002502 
	C499.239166,595.536865 499.239166,601.597534 499.239166,607.758057 
	C505.208588,607.758057 510.936401,607.758057 517.000000,607.758057 
	C517.000000,602.567139 517.000000,597.611511 516.999451,591.685303 
M674.000000,774.480530 
	C674.000000,777.246033 674.000000,780.011475 674.000000,782.709595 
	C680.309631,782.709595 686.036560,782.709595 691.708435,782.709595 
	C691.708435,776.354797 691.708435,770.293884 691.708435,764.293518 
	C685.685425,764.293518 679.957642,764.293518 674.000000,764.293518 
	C674.000000,767.556580 674.000000,770.528320 674.000000,774.480530 
M517.000000,769.595886 
	C517.000000,767.826111 517.000000,766.056335 517.000000,764.266479 
	C510.740692,764.266479 505.013092,764.266479 499.268372,764.266479 
	C499.268372,770.596985 499.268372,776.657471 499.268372,782.729065 
	C505.269257,782.729065 510.997437,782.729065 517.000000,782.729065 
	C517.000000,778.496948 517.000000,774.532776 517.000000,769.595886 
z"/>
<path fill="#A52326" opacity="1.000000" stroke="none" 
	d="
M880.437805,633.611816 
	C880.696533,636.825195 880.852722,639.699829 880.806702,642.571289 
	C880.654602,652.053711 879.870422,661.564575 880.368774,671.009644 
	C881.047546,683.874146 880.616516,696.686096 880.380493,709.531433 
	C880.165894,721.208740 880.816467,732.899780 880.744080,744.582642 
	C880.700317,751.656738 874.695496,755.235046 869.318481,751.374878 
	C867.515930,750.080811 866.477600,747.056641 866.065613,744.655884 
	C865.519653,741.474548 865.931030,738.128906 865.931030,735.109802 
	C858.647400,739.667419 851.746216,744.437317 844.438232,748.469788 
	C825.992798,758.647400 801.789124,749.645996 791.775330,734.677002 
	C781.868652,719.868103 755.031799,717.092896 743.301025,734.017334 
	C741.870850,736.080566 738.019409,738.236267 735.998535,737.696594 
	C733.101990,736.922913 729.996216,734.123901 728.667603,731.374146 
	C727.908264,729.802490 730.121094,726.350220 731.636841,724.195679 
	C741.764099,709.800293 765.419678,703.295654 781.907043,709.634521 
	C791.192871,713.204590 798.591797,718.518555 804.653259,726.532715 
	C814.425415,739.453186 833.520935,740.722717 847.045715,730.023438 
	C849.632263,727.977295 852.100037,725.781067 855.048950,723.294373 
	C848.035706,720.432556 836.697021,727.199585 835.195251,713.675171 
	C824.525574,715.140808 814.247009,713.734558 805.170410,707.957153 
	C800.370178,704.901672 795.616760,701.106934 792.240356,696.598816 
	C779.607971,679.732361 756.090149,679.239685 743.039185,695.753662 
	C741.507568,697.691711 737.763245,699.474060 735.632690,698.947815 
	C732.885132,698.269226 730.617126,695.301697 728.414185,693.053711 
	C727.962708,692.592957 728.445190,690.812378 728.946655,689.882751 
	C737.283020,674.429382 759.421387,665.425415 776.458679,669.675720 
	C788.266907,672.621582 797.399780,678.545898 804.930054,688.166382 
	C814.871765,700.867554 831.233032,702.464783 844.535278,692.983521 
	C848.115479,690.431702 851.576965,687.713257 855.505432,684.761353 
	C847.937439,681.792786 836.686218,688.785522 835.284546,676.384399 
	C826.978882,674.904419 818.936523,674.023376 811.216309,671.945435 
	C802.976013,669.727417 796.641846,664.249268 791.720398,657.282715 
	C780.181458,640.948669 755.217163,640.614197 743.383728,656.808655 
	C741.058899,659.990295 738.131226,661.433350 734.890930,659.979431 
	C732.310669,658.821777 730.343140,656.163452 728.359985,653.942383 
	C728.026978,653.569458 728.897217,651.980286 729.381226,651.040527 
	C739.522644,631.350952 766.407715,625.479919 785.019653,633.437439 
	C792.992493,636.846252 799.366211,642.001038 804.585938,649.085388 
	C813.928040,661.764587 832.181030,663.606689 845.646851,653.691101 
	C848.919800,651.281067 851.965942,648.563110 854.877380,644.895325 
	C851.162964,644.895325 847.445007,644.998901 843.734924,644.871460 
	C837.973450,644.673523 835.438538,642.174377 835.581055,637.078674 
	C835.713745,632.331604 838.248047,630.068481 843.910767,630.017700 
	C853.576599,629.930969 863.252014,629.774902 872.904602,630.142700 
	C875.386841,630.237244 877.798584,632.178650 880.437805,633.611816 
M852.157043,668.364380 
	C856.687378,668.364380 861.217773,668.364380 865.569824,668.364380 
	C865.569824,664.209778 865.569824,660.724182 865.569824,656.959106 
	C860.713440,660.781982 856.241821,664.301941 852.157043,668.364380 
M859.564819,707.163330 
	C861.632324,707.163330 863.699768,707.163330 865.673218,707.163330 
	C865.673218,702.978882 865.673218,699.589661 865.673218,695.711304 
	C860.865479,699.481812 856.478699,702.922180 851.070862,707.163330 
	C854.449158,707.163330 856.539734,707.163330 859.564819,707.163330 
z"/>
<path fill="#A52326" opacity="1.000000" stroke="none" 
	d="
M397.041779,253.189850 
	C385.808624,249.863174 377.407166,243.684204 370.275177,234.669617 
	C358.303589,219.537964 334.836029,220.365509 323.513397,235.494339 
	C320.414062,239.635529 316.128754,240.689484 312.330811,238.244583 
	C308.834686,235.993988 308.089783,230.901154 311.107574,226.706619 
	C317.270905,218.139954 325.709625,212.417862 335.931824,210.360138 
	C355.458710,206.429398 372.083862,211.294693 384.419769,227.973450 
	C393.662140,240.469559 411.347229,242.575516 425.057312,233.043808 
	C428.561096,230.607834 431.767975,227.744781 434.942932,223.902267 
	C431.603210,223.902267 428.263031,223.936615 424.923828,223.895035 
	C418.169128,223.810944 415.524109,221.632904 415.579285,216.268188 
	C415.631622,211.180923 418.270660,209.034241 424.721191,209.003555 
	C433.887573,208.959961 443.066437,209.275162 452.216217,208.882706 
	C457.417572,208.659592 459.946259,211.715546 462.505005,215.203461 
	C462.767700,215.561554 462.930115,216.267349 462.757568,216.630539 
	C458.472046,225.650833 461.751129,235.183304 460.915985,244.436539 
	C460.612579,247.798279 459.120209,251.489761 462.458740,254.691620 
	C463.110229,255.316437 460.975769,258.355316 460.902679,260.309753 
	C460.548187,269.786987 460.415375,279.273712 460.335205,288.758209 
	C460.326385,289.803986 461.120911,290.873383 461.608521,291.900665 
	C461.934967,292.588501 462.873138,293.434296 462.695557,293.847321 
	C458.509766,303.582306 462.068146,313.793854 460.713531,323.665131 
	C460.400757,325.944366 459.485901,328.793213 457.835205,330.114838 
	C452.811035,334.137329 446.510651,331.077209 446.006592,324.579254 
	C445.729767,321.010864 445.957062,317.403381 445.957062,314.117340 
	C438.595459,318.712769 431.681641,323.489807 424.353668,327.512360 
	C405.989044,337.593384 381.818420,328.692780 371.713837,313.604218 
	C361.882111,298.923096 334.940094,295.987823 323.357758,313.172180 
	C320.387909,317.578461 316.773346,318.194580 312.633118,315.642578 
	C309.040405,313.428162 307.521973,308.989471 310.647125,305.256714 
	C314.925537,300.146484 319.839752,294.999420 325.554626,291.763458 
	C345.931000,280.225555 371.994354,287.345001 384.183929,304.953491 
	C393.465393,318.361023 413.545715,319.906738 427.228149,308.858826 
	C429.763611,306.811523 432.215942,304.661255 435.074860,302.247681 
	C427.778778,299.590668 416.554169,306.145630 415.179169,292.685333 
	C401.372009,294.447784 389.018921,291.301239 378.402740,282.342133 
	C376.026703,280.336945 373.839630,277.983002 372.022797,275.460327 
	C359.964478,258.717438 335.775208,258.272369 323.327362,274.656586 
	C320.353027,278.571533 315.976288,279.637909 312.496582,277.295502 
	C309.018188,274.953979 308.137146,270.352997 310.745483,266.164001 
	C315.205963,259.000458 321.922211,254.351868 329.488861,251.172226 
	C350.244324,242.450394 373.282104,250.845230 384.147461,266.305206 
	C393.237457,279.239044 411.236084,281.647278 424.041321,272.433044 
	C427.773163,269.747742 431.375336,266.882263 434.733398,262.882202 
	C431.692749,262.882202 428.652008,262.897003 425.611481,262.879272 
	C418.223694,262.836121 416.574280,261.496246 415.177002,254.475861 
	C409.261597,254.078232 403.356812,253.681305 397.041779,253.189850 
M445.138062,236.179779 
	C440.686371,239.731964 436.234680,243.284164 431.325989,247.201019 
	C436.476837,247.201019 441.040100,247.201019 445.849243,247.201019 
	C445.849243,243.491302 445.849243,240.018417 445.138062,236.179779 
M439.821838,279.277008 
	C437.232117,281.321838 434.642395,283.366669 431.415405,285.914703 
	C436.780792,285.914703 441.140167,285.914703 445.659180,285.914703 
	C445.659180,282.174683 445.659180,278.687836 445.659180,274.609436 
	C443.601715,276.265747 442.003052,277.552734 439.821838,279.277008 
z"/>
<path fill="#020202" opacity="1.000000" stroke="none" 
	d="
M359.000000,697.051636 
	C340.009003,697.051575 321.517975,697.063110 303.026978,697.044312 
	C297.429688,697.038574 294.962219,695.002747 295.005432,690.558533 
	C295.047974,686.182617 297.685181,683.980408 303.015839,683.979248 
	C347.827393,683.969543 392.638947,683.973389 437.450500,683.973145 
	C439.076508,683.973145 440.702515,683.973206 442.328522,683.973206 
	C442.639618,683.564148 442.950745,683.155029 443.261841,682.745972 
	C437.937897,677.726440 432.581329,672.740845 427.304688,667.672058 
	C424.920532,665.381775 422.774506,662.842651 420.378357,660.565918 
	C417.286316,657.627991 417.016876,654.518982 419.803253,651.407654 
	C422.899017,647.950989 426.078156,647.796448 429.724243,651.277649 
	C437.532135,658.732544 445.107269,666.431091 452.782532,674.025024 
	C456.439667,677.643433 460.134949,681.223755 463.763580,684.870422 
	C468.031647,689.159668 467.985626,691.996643 463.688721,696.269104 
	C452.533386,707.361267 441.387115,718.462585 430.222351,729.545166 
	C427.009521,732.734375 422.935883,733.028564 420.078644,730.344849 
	C417.144867,727.589233 417.245911,723.750977 420.652435,720.289062 
	C427.544067,713.285461 434.562958,706.407104 441.518677,699.466431 
	C442.051086,698.935181 442.499359,698.319641 443.571564,697.051636 
	C414.980011,697.051636 387.239990,697.051636 359.000000,697.051636 
z"/>
<path fill="#020202" opacity="1.000000" stroke="none" 
	d="
M885.012573,317.012726 
	C876.054077,325.865967 867.429077,334.563019 858.723145,343.178284 
	C855.961487,345.911133 851.334961,345.872742 848.882141,343.113556 
	C846.121887,340.008514 846.256531,336.741638 849.168701,333.793365 
	C856.745605,326.122528 864.390747,318.519135 872.844360,310.051697 
	C870.119629,310.051697 868.398193,310.051727 866.676758,310.051727 
	C821.716858,310.051605 776.757019,310.059723 731.797119,310.041504 
	C725.774658,310.039062 722.575745,306.305298 724.334595,301.374908 
	C725.563416,297.930237 728.087036,296.877960 731.736877,296.904297 
	C751.884521,297.049774 772.033752,296.973328 792.182434,296.973206 
	C818.490723,296.973083 844.799011,296.973175 872.459473,296.973175 
	C867.987915,292.444183 864.192261,288.608521 860.406616,284.762970 
	C856.696167,280.993683 853.055359,277.153503 849.272644,273.458405 
	C846.191772,270.449036 846.074402,267.377716 848.910828,264.311768 
	C851.908142,261.072113 855.299683,260.946289 858.472229,264.023743 
	C866.219299,271.538483 873.869141,279.153534 881.548584,286.737793 
	C885.207031,290.350800 888.837219,293.992249 892.492004,297.608887 
	C897.038696,302.108185 897.055359,304.897461 892.604980,309.349640 
	C890.144531,311.811096 887.742798,314.331238 885.012573,317.012726 
z"/>
<path fill="#2B2829" opacity="1.000000" stroke="none" 
	d="
M454.873291,445.981506 
	C457.520050,445.707825 458.625763,446.312653 458.597778,448.893738 
	C458.466217,461.038147 458.631500,473.186096 458.464569,485.329681 
	C458.228088,502.536957 446.731476,505.018585 435.296814,504.313660 
	C428.124481,503.871460 421.879486,501.612549 419.342133,493.894470 
	C419.188446,493.426971 419.116547,492.919647 419.093750,492.426788 
	C419.079132,492.110352 419.224335,491.786499 419.334564,491.306213 
	C423.614319,491.140625 427.340454,490.595245 431.143738,494.769226 
	C433.255371,497.086700 439.157684,496.834656 443.158325,496.298706 
	C447.190704,495.758484 448.583527,491.797882 448.902008,487.915161 
	C449.050903,486.100037 448.927460,484.262543 448.927460,481.664246 
	C443.639496,487.690033 437.462433,489.232513 430.367249,487.112000 
	C429.577393,486.875946 428.790497,486.602783 428.041779,486.260254 
	C419.360962,482.288727 415.084412,469.763000 418.523163,458.422302 
	C421.449402,448.771851 429.568939,443.385345 439.543884,445.119537 
	C442.738220,445.674896 445.661957,447.786652 448.847290,449.249634 
	C448.923401,448.551910 449.052612,447.367157 449.203735,445.981476 
	C451.122040,445.981476 452.773499,445.981476 454.873291,445.981506 
M433.568939,479.498566 
	C440.335144,480.993713 443.875275,479.999176 446.535553,475.317047 
	C449.787018,469.594452 450.342346,463.306000 446.801697,457.807373 
	C445.101654,455.167206 441.085205,452.626862 438.095825,452.601257 
	C435.123291,452.575745 431.177094,455.083435 429.326050,457.672852 
	C425.060272,463.640198 426.269775,475.506836 433.568939,479.498566 
z"/>
<path fill="#2B2829" opacity="1.000000" stroke="none" 
	d="
M310.202087,90.696625 
	C309.420776,88.702530 308.825439,87.026947 308.067627,84.894058 
	C312.839142,84.447662 316.602081,83.370956 320.107391,88.080521 
	C322.992676,91.957001 328.266052,91.266663 332.663910,89.772156 
	C336.638184,88.421593 338.005676,85.049385 338.122040,81.092171 
	C338.169769,79.469048 338.129913,77.843346 338.129913,76.497726 
	C334.627563,78.083389 331.419647,80.406441 327.934326,80.949699 
	C317.664612,82.550461 309.676056,77.170403 307.977661,66.809074 
	C307.050049,61.149841 307.171570,54.644104 309.079437,49.331539 
	C313.379730,37.357117 327.812561,34.405869 337.493683,42.954765 
	C338.810577,35.854523 343.943298,40.536270 347.412628,38.865734 
	C347.412628,54.226223 347.879547,68.840698 347.226562,83.404968 
	C346.870392,91.349709 341.710876,95.742332 333.724609,97.140976 
	C325.050995,98.659988 316.764862,98.391518 310.202087,90.696625 
M333.175476,71.840187 
	C338.477722,66.220909 339.838379,57.555557 336.434784,51.187851 
	C334.436615,47.449520 331.360809,45.790672 327.103149,45.807838 
	C322.977753,45.824474 319.582123,47.490463 318.434296,51.210499 
	C317.207703,55.185749 316.406952,59.675739 316.952240,63.735252 
	C318.118225,72.415092 324.324860,75.478104 333.175476,71.840187 
z"/>
<path fill="#2B2728" opacity="1.000000" stroke="none" 
	d="
M331.806854,484.907959 
	C320.859039,491.394775 308.319977,486.968536 305.333313,475.144104 
	C304.005341,469.886536 303.856110,463.775452 305.127319,458.525238 
	C308.439941,444.844177 323.770721,440.423431 334.460938,449.497101 
	C335.597992,445.677856 335.597992,445.677856 344.467133,446.183929 
	C344.593231,447.212097 344.840302,448.300262 344.842834,449.389008 
	C344.870697,461.366180 344.913879,473.343781 344.841248,485.320557 
	C344.795044,492.938446 342.765137,499.884857 334.865082,502.622070 
	C325.911957,505.724152 316.756500,506.014740 308.991547,499.379242 
	C306.985626,497.665131 306.240448,494.475708 304.590759,491.346924 
	C310.074982,491.158142 313.716003,490.581848 317.523621,494.781616 
	C319.647308,497.123962 325.834534,496.692261 329.963196,496.049774 
	C334.056732,495.412781 335.105743,491.339203 335.136139,487.412567 
	C335.148499,485.820068 335.138184,484.227325 335.138184,481.813690 
	C333.703064,483.181000 332.909668,483.936890 331.806854,484.907959 
M321.971802,480.066925 
	C326.235382,480.735168 329.850250,479.740845 332.481140,476.070618 
	C335.876801,471.333344 336.165771,462.067810 333.032257,457.109528 
	C329.604767,451.686005 322.047974,450.602783 317.526581,454.909790 
	C310.918030,461.204987 312.104431,477.773560 321.971802,480.066925 
z"/>
<path fill="#292526" opacity="1.000000" stroke="none" 
	d="
M201.653687,78.529831 
	C192.055008,70.556274 190.295364,54.395172 197.720306,44.948788 
	C204.319778,36.552608 215.184464,35.858009 224.620361,43.429173 
	C224.767685,42.054741 224.898956,40.830147 225.054367,39.380257 
	C227.911682,39.380257 230.656281,39.380257 234.012009,39.380257 
	C234.012009,47.023636 234.012009,54.615726 234.012009,62.207817 
	C234.012009,67.032021 233.739883,71.874420 234.061127,76.677132 
	C235.196014,93.643852 224.215698,99.446518 208.992615,97.412849 
	C199.861206,96.192970 195.968933,92.468864 194.992828,84.823494 
	C199.033981,84.715118 202.789902,82.932167 206.140762,87.821259 
	C208.746124,91.622612 213.761673,91.254463 218.134583,90.061005 
	C221.947968,89.020241 223.897247,86.301270 224.393188,82.518898 
	C224.691513,80.243828 224.747559,77.936989 224.984085,74.649139 
	C217.899216,82.536407 210.215759,82.740265 201.653687,78.529831 
M205.139313,69.136833 
	C207.669739,72.715088 211.027985,74.344017 215.434891,73.521042 
	C220.329620,72.606964 223.020020,69.247513 223.811111,64.754280 
	C224.427994,61.250504 224.459076,57.448467 223.792160,53.962299 
	C222.923569,49.421791 220.011505,46.269779 214.975815,45.854969 
	C209.560379,45.408890 205.998566,47.406158 204.083221,52.543480 
	C202.102493,57.856060 202.034622,63.247246 205.139313,69.136833 
z"/>
<path fill="#272324" opacity="1.000000" stroke="none" 
	d="
M60.821251,437.029419 
	C60.821247,434.558746 60.821247,432.577484 60.821247,430.294281 
	C63.924114,430.294281 66.813927,430.294281 69.945679,430.294281 
	C69.945679,449.440521 69.945679,468.502838 69.945679,487.787323 
	C67.179588,487.787323 64.567513,487.787323 61.597954,487.787323 
	C61.363621,486.752350 61.096943,485.574493 60.826912,484.381866 
	C60.519421,484.462738 60.142967,484.451111 59.934391,484.632507 
	C49.842407,493.409302 33.832569,489.055786 30.233149,476.073578 
	C28.854088,471.099609 28.536667,465.397003 29.410280,460.314331 
	C32.011181,445.182281 47.311539,439.990723 60.821259,450.099274 
	C60.821259,445.521851 60.821259,441.520325 60.821251,437.029419 
M40.698887,476.631500 
	C46.825611,483.941284 56.924709,483.003937 59.553127,474.249420 
	C60.976803,469.507507 60.430294,463.797485 59.398369,458.808411 
	C58.495449,454.443085 54.253185,452.297913 49.782280,452.272064 
	C45.316719,452.246277 41.803638,454.395203 39.965256,458.686249 
	C37.479717,464.487762 37.441334,470.275146 40.698887,476.631500 
z"/>
<path fill="#2B2728" opacity="1.000000" stroke="none" 
	d="
M235.550751,449.581787 
	C243.655594,443.456146 252.203156,443.565460 260.875336,446.776917 
	C265.723755,448.572418 267.978271,452.470856 267.884674,457.752319 
	C267.775452,463.913849 267.625153,470.092560 267.984589,476.235016 
	C268.112732,478.424744 269.679535,480.530304 270.589661,482.674286 
	C271.085266,482.480591 271.580872,482.286896 272.076477,482.093201 
	C272.076477,483.905090 272.076477,485.716949 272.076477,487.499359 
	C266.131409,490.314667 262.913971,489.716370 259.718048,486.004913 
	C253.862320,487.083282 248.643082,488.682312 243.375748,488.860535 
	C236.021530,489.109375 231.046219,484.373077 230.319138,477.736389 
	C229.594147,471.118683 233.029633,466.625397 240.633759,464.802155 
	C244.984604,463.758972 249.558929,463.557556 253.820892,462.274048 
	C255.788040,461.681641 257.248108,459.405334 258.938110,457.892578 
	C257.228546,456.160736 255.811264,453.542664 253.754303,452.864349 
	C247.746674,450.883270 243.722717,453.017303 240.794815,458.876251 
	C238.072647,458.876251 235.279877,458.876251 231.153778,458.876251 
	C232.698608,455.501434 233.993637,452.672333 235.550751,449.581787 
M255.031006,479.559143 
	C259.534668,476.489746 258.099030,472.119202 257.849182,467.844391 
	C253.663422,468.562653 249.746414,469.163147 245.860580,469.923157 
	C242.465179,470.587280 239.853851,472.382690 239.955093,476.159821 
	C240.066910,480.331299 243.535950,481.135406 246.679520,481.264496 
	C249.215561,481.368652 251.794449,480.429535 255.031006,479.559143 
z"/>
<path fill="#2A2627" opacity="1.000000" stroke="none" 
	d="
M195.857742,446.467316 
	C195.857803,447.735748 195.857803,448.565460 195.857803,450.402771 
	C200.542267,445.782379 205.649323,444.202881 211.485504,444.966644 
	C218.124313,445.835449 222.750305,450.059967 222.958389,456.671204 
	C223.281754,466.945282 223.043854,477.237000 223.043854,487.767090 
	C220.085617,487.767090 217.317444,487.767090 213.813019,487.767090 
	C213.813019,481.310974 213.813065,474.738586 213.812988,468.166229 
	C213.812973,466.168274 213.855103,464.169281 213.804672,462.172577 
	C213.638306,455.583557 210.996750,452.318970 205.811829,452.235413 
	C200.573822,452.151001 196.121353,456.370209 195.937256,462.120911 
	C195.708298,469.273071 195.866364,476.437561 195.857880,483.596741 
	C195.856339,484.893036 195.857651,486.189362 195.857651,487.748199 
	C192.564819,487.748199 189.646835,487.748199 186.142319,487.748199 
	C186.142319,478.130371 186.142334,468.530884 186.142334,458.931366 
	C186.142334,449.472870 186.142319,440.014374 186.142319,430.272278 
	C189.397232,430.272278 192.314362,430.272278 195.857681,430.272278 
	C195.857681,435.490631 195.857681,440.759644 195.857742,446.467316 
z"/>
<path fill="#282425" opacity="1.000000" stroke="none" 
	d="
M152.578064,41.355366 
	C154.311752,44.781849 156.609512,47.882198 156.987961,51.201385 
	C157.663193,57.123283 157.251251,63.178543 157.150848,69.175644 
	C157.097794,72.343948 156.963715,75.365494 162.666245,75.090752 
	C161.342255,77.975060 160.787430,81.346840 159.450867,81.692047 
	C155.353683,82.750305 150.755951,83.254143 149.017090,79.419029 
	C143.004227,80.399971 137.587570,81.829292 132.124802,82.035057 
	C125.478333,82.285416 120.500992,77.699051 119.875618,71.945053 
	C119.058952,64.431023 122.131409,59.882969 129.647644,58.113617 
	C133.844452,57.125671 138.161911,56.642315 142.431931,55.976067 
	C145.409073,55.511555 148.190720,54.726929 148.096085,50.984459 
	C147.997421,47.082096 145.117661,46.057652 141.919418,45.919300 
	C137.414871,45.724449 133.232147,45.553623 130.535965,50.894066 
	C129.708908,52.532257 124.693169,52.055756 121.408318,52.577358 
	C122.674881,39.131607 138.227249,33.776562 152.578064,41.355366 
M134.329422,74.420265 
	C144.754532,75.864502 148.802399,71.787796 147.423203,61.120148 
	C143.192978,61.828529 138.780090,62.023262 134.806015,63.444744 
	C132.556702,64.249298 130.321564,66.810738 129.489532,69.094406 
	C129.106537,70.145607 132.107269,72.429634 134.329422,74.420265 
z"/>
<path fill="#252122" opacity="1.000000" stroke="none" 
	d="
M84.921211,24.385084 
	C84.990936,30.966936 84.990936,37.085339 84.990936,44.112553 
	C90.274918,38.718475 95.983032,37.038879 102.585724,38.710873 
	C108.311081,40.160702 111.863091,43.424381 112.107750,49.361900 
	C112.537354,59.787552 112.227745,70.243660 112.227745,80.928558 
	C109.308533,80.928558 106.526405,80.928558 102.995911,80.928558 
	C102.995911,73.854973 102.995911,66.625526 102.995903,59.396080 
	C102.995895,57.898865 102.989891,56.401623 102.996910,54.904438 
	C103.017212,50.575878 101.992584,46.879536 97.028374,45.947685 
	C91.844437,44.974583 87.466255,47.220608 86.010704,52.187714 
	C85.099747,55.296413 85.115974,58.727139 85.043900,62.020542 
	C84.906631,68.292641 85.004089,74.569878 85.004089,80.960709 
	C81.772514,80.960709 79.028511,80.960709 76.066010,80.960709 
	C76.066010,61.712574 76.066010,42.675892 76.066010,22.907000 
	C79.187943,23.267553 82.019714,23.594595 84.921211,24.385084 
z"/>
<path fill="#2B2728" opacity="1.000000" stroke="none" 
	d="
M108.448761,454.392120 
	C106.858116,458.544342 109.465736,459.956238 112.263680,460.812073 
	C116.392250,462.074951 120.682190,462.805359 124.824188,464.030365 
	C131.458038,465.992401 134.542755,469.519348 134.779663,474.970703 
	C135.025055,480.617737 131.656982,485.965149 125.208351,487.354675 
	C119.695480,488.542572 113.650963,488.733887 108.086533,487.840454 
	C101.078865,486.715332 98.176224,482.310059 97.359726,474.483093 
	C100.290154,474.483093 103.198196,474.483093 106.166435,474.483093 
	C109.181931,480.768005 114.279526,483.123505 121.025887,480.790100 
	C122.620041,480.238739 124.638359,478.382751 124.802917,476.937988 
	C124.968826,475.481323 123.430046,473.016998 122.006340,472.356995 
	C118.732262,470.839142 115.072723,470.154724 111.572777,469.121399 
	C109.190483,468.418091 106.719505,467.914246 104.454872,466.935516 
	C100.433365,465.197479 98.348587,461.952179 98.145416,457.553619 
	C97.942169,453.153717 99.636658,449.657410 103.591896,447.675232 
	C111.515953,443.704102 119.578552,443.317841 127.420624,447.845306 
	C131.075729,449.955536 132.960388,453.362793 132.996841,457.843323 
	C128.374237,458.003510 124.375381,458.862061 120.690063,454.169250 
	C117.996071,450.738678 112.781441,451.610870 108.448761,454.392120 
z"/>
<path fill="#2E2A2B" opacity="1.000000" stroke="none" 
	d="
M296.881287,43.227909 
	C297.912781,46.539551 299.340118,49.520927 299.441040,52.546555 
	C299.751404,61.849701 299.554077,71.169785 299.554077,80.843781 
	C296.331512,80.843781 293.281219,80.843781 289.975677,80.843781 
	C289.975677,72.476402 290.003174,64.165070 289.967194,55.854023 
	C289.936981,48.869881 287.709747,45.998611 282.346130,45.870930 
	C276.569763,45.733433 272.303070,49.544670 272.109436,55.704613 
	C271.848358,64.008995 272.044617,72.327766 272.044617,80.922241 
	C268.920471,80.922241 266.012299,80.922241 262.768677,80.922241 
	C262.768677,67.202576 262.768677,53.498390 262.768677,39.461040 
	C265.392853,39.461040 267.975006,39.461040 270.942719,39.461040 
	C271.263611,40.533878 271.665009,41.875912 272.153046,43.507549 
	C280.208466,36.666241 288.389160,35.571472 296.881287,43.227909 
z"/>
<path fill="#292526" opacity="1.000000" stroke="none" 
	d="
M400.696716,460.750824 
	C399.286926,454.238739 396.633423,451.823730 391.819489,452.297089 
	C386.830536,452.787659 383.016388,456.699951 382.907623,462.010986 
	C382.734467,470.468079 382.861359,478.931305 382.861359,487.700958 
	C379.647003,487.700958 376.730438,487.700958 373.473755,487.700958 
	C373.473755,474.094330 373.473755,460.374512 373.473755,446.319366 
	C376.143127,446.319366 378.884796,446.319366 381.940338,446.319366 
	C382.075653,447.541382 382.227600,448.913361 382.405090,450.516144 
	C383.022888,450.188599 383.531586,450.070526 383.805328,449.751099 
	C388.126770,444.709045 393.788544,444.130463 399.766357,445.193939 
	C405.771545,446.262268 409.853485,450.931061 409.961182,457.032715 
	C410.139893,467.158997 410.009796,477.290680 410.009796,487.716003 
	C407.044098,487.716003 404.296844,487.716003 400.761353,487.716003 
	C400.761353,478.978882 400.761353,470.081421 400.696716,460.750824 
z"/>
<path fill="#2B2728" opacity="1.000000" stroke="none" 
	d="
M45.835358,46.256508 
	C37.430130,51.206810 35.494110,64.875587 41.867252,71.670990 
	C46.491249,76.601357 54.269413,75.677963 57.484592,69.761726 
	C58.192139,68.459778 58.605518,66.997971 59.243259,65.384933 
	C62.093002,65.384933 64.981400,65.384933 67.878349,65.384933 
	C67.578865,74.182365 62.162556,80.652763 54.145737,81.970909 
	C43.028893,83.798767 34.038918,79.633339 30.571823,70.677673 
	C27.826050,63.585232 27.878387,56.322918 30.973661,49.319675 
	C36.421913,36.992687 55.169502,33.792912 64.233536,43.777763 
	C66.382095,46.144592 67.371941,49.563278 69.313492,53.305054 
	C65.032227,53.305054 62.255070,53.305054 59.444397,53.305054 
	C55.600658,45.901604 54.688187,45.403297 45.835358,46.256508 
z"/>
<path fill="#2B2728" opacity="1.000000" stroke="none" 
	d="
M150.177246,487.051056 
	C138.627853,479.466919 135.758453,462.999023 143.768387,452.236694 
	C148.500885,445.877930 157.589600,443.126282 166.303040,445.414124 
	C173.820648,447.387970 177.857437,451.952972 178.883728,460.058563 
	C174.636658,459.778351 170.380402,462.143799 167.642761,455.755615 
	C165.364670,450.439789 155.651917,451.294098 151.818817,456.429810 
	C148.154419,461.339569 147.823853,471.812805 151.278320,476.842865 
	C153.510376,480.092926 156.826248,482.390747 160.586472,481.187103 
	C163.567017,480.233002 166.055099,477.556732 168.558212,475.407959 
	C169.299576,474.771515 169.349915,473.330078 169.749863,472.161194 
	C172.866455,472.161194 175.814484,472.161194 178.783356,472.161194 
	C177.089523,486.486542 165.327026,492.667877 150.177246,487.051056 
z"/>
<path fill="#1C82F3" opacity="1.000000" stroke="none" 
	d="
M819.704590,272.641296 
	C816.497498,278.655334 811.858765,282.429321 805.780396,284.437897 
	C796.121033,287.629761 785.970215,284.875183 779.390076,276.841400 
	C772.714050,268.690460 771.760620,259.510040 776.857605,250.355682 
	C782.487793,240.243683 788.819397,230.521988 794.853760,220.635361 
	C796.888062,217.302307 799.402527,217.112885 801.393494,220.358734 
	C808.138672,231.355469 815.067383,242.275085 821.083862,253.668823 
	C824.213318,259.595337 823.399902,266.298157 819.704590,272.641296 
M780.127625,268.911774 
	C783.134277,272.129700 785.714417,275.955963 789.242798,278.429626 
	C795.230225,282.627197 804.149536,281.386230 810.629395,276.378571 
	C816.172607,272.094757 819.499329,263.780548 817.385925,257.730469 
	C813.163025,245.641251 805.750122,235.373611 797.845764,224.243271 
	C792.311707,233.350311 787.134155,241.628311 782.212158,250.055557 
	C778.923767,255.685959 777.373596,261.708954 780.127625,268.911774 
z"/>
<path fill="#1C82F3" opacity="1.000000" stroke="none" 
	d="
M400.449524,664.403931 
	C386.958710,679.640320 367.391296,674.754272 359.631378,660.785950 
	C356.156494,654.530884 355.332428,647.620239 358.422455,641.616516 
	C364.962280,628.910217 372.605499,616.771729 380.586761,603.040161 
	C385.045837,609.568665 388.595917,614.422852 391.774170,619.509460 
	C395.451538,625.394775 398.868439,631.446838 402.278351,637.494202 
	C407.461029,646.685547 406.743713,655.587646 400.449524,664.403931 
M388.638000,667.574707 
	C389.480194,667.041138 390.325439,666.512207 391.164154,665.973206 
	C400.352356,660.068359 403.463470,651.153503 398.609894,641.568848 
	C393.622559,631.720093 387.696960,622.346436 382.181976,612.764893 
	C381.494659,612.680542 380.807312,612.596191 380.119995,612.511780 
	C374.200073,623.163757 367.757385,633.574646 362.668884,644.609985 
	C361.078979,648.057983 362.058075,653.675720 363.746735,657.458557 
	C368.146912,667.315369 375.832092,670.195679 388.638000,667.574707 
z"/>
<path fill="#2E2A2B" opacity="1.000000" stroke="none" 
	d="
M292.523438,446.434021 
	C295.805573,445.632172 298.782257,445.044586 302.046143,444.400299 
	C302.046143,448.172363 302.046143,450.955200 302.046143,453.728821 
	C290.285034,454.377045 287.027588,457.924927 287.024536,469.928528 
	C287.023041,475.743500 287.024292,481.558472 287.024292,487.697876 
	C283.942322,487.697876 281.034454,487.697876 277.780273,487.697876 
	C277.780273,474.068298 277.780273,460.340179 277.780273,446.292572 
	C280.477570,446.292572 283.210144,446.292572 286.267700,446.292572 
	C286.441864,447.644348 286.625977,449.073212 286.867584,450.948639 
	C288.803131,449.392944 290.510559,448.020599 292.523438,446.434021 
z"/>
<path fill="#292526" opacity="1.000000" stroke="none" 
	d="
M166.817383,65.997665 
	C166.817383,56.883438 166.817383,48.269062 166.817383,39.404297 
	C169.992477,39.404297 172.725616,39.404297 175.636261,39.404297 
	C175.783005,41.227089 175.911163,42.819191 176.087234,45.006283 
	C180.187256,40.101059 184.688370,37.091145 191.243271,38.454994 
	C191.243271,41.214638 191.243271,43.979687 191.243271,46.747028 
	C181.736328,46.906853 176.187332,49.408428 176.182877,64.104156 
	C176.181213,69.575752 176.182617,75.047348 176.182617,80.849869 
	C173.083908,80.849869 170.210510,80.849869 166.817383,80.849869 
	C166.817383,76.045128 166.817383,71.271324 166.817383,65.997665 
z"/>
<path fill="#2E2A2B" opacity="1.000000" stroke="none" 
	d="
M243.130356,67.982803 
	C243.130356,58.202538 243.130356,48.919434 243.130356,39.387386 
	C246.536942,39.387386 249.437653,39.387386 252.604446,39.387386 
	C252.604446,53.217415 252.604446,66.820694 252.604446,80.815346 
	C249.675507,80.815346 246.637482,80.815346 243.130356,80.815346 
	C243.130356,76.709114 243.130356,72.594536 243.130356,67.982803 
z"/>
<path fill="#2E2A2B" opacity="1.000000" stroke="none" 
	d="
M80.518913,446.513184 
	C83.628098,446.158325 86.432449,446.158325 89.552963,446.158325 
	C89.552963,459.904968 89.552963,473.600464 89.552963,487.661163 
	C86.632477,487.661163 83.612907,487.661163 80.214081,487.661163 
	C80.214081,474.004242 80.214081,460.436157 80.518913,446.513184 
z"/>
<path fill="#2E2A2B" opacity="1.000000" stroke="none" 
	d="
M361.653625,488.011719 
	C359.031891,488.022308 356.867188,488.022308 354.339172,488.022308 
	C354.339172,474.083252 354.339172,460.224274 354.339172,446.204590 
	C357.314514,446.204590 360.220978,446.204590 363.526703,446.204590 
	C363.526703,459.725677 363.544006,473.022369 363.466736,486.318573 
	C363.463470,486.882050 362.582703,487.440399 361.653625,488.011719 
z"/>
<path fill="#2E2A2B" opacity="1.000000" stroke="none" 
	d="
M247.161407,32.205265 
	C245.616852,32.106388 244.497330,32.007561 243.263306,31.898628 
	C243.263306,29.090204 243.263306,26.479156 243.263306,23.499210 
	C246.258820,23.499210 249.143341,23.499210 252.451874,23.499210 
	C252.451874,26.138878 252.451874,28.967377 252.451874,32.205315 
	C250.836990,32.205315 249.211716,32.205315 247.161407,32.205265 
z"/>
<path fill="#2E2A2B" opacity="1.000000" stroke="none" 
	d="
M359.805603,429.975769 
	C362.376495,429.748566 363.841675,430.143677 363.593506,432.827087 
	C363.414154,434.766449 363.558533,436.735809 363.558533,438.855225 
	C360.239471,438.855225 357.442963,438.855225 354.310303,438.855225 
	C354.310303,436.158661 354.310303,433.414001 354.310303,429.975708 
	C355.851379,429.975708 357.600739,429.975708 359.805603,429.975769 
z"/>
<path fill="#2E2A2B" opacity="1.000000" stroke="none" 
	d="
M80.136200,432.205048 
	C83.106560,430.909943 86.072227,430.076233 89.584610,429.088837 
	C89.584610,433.006287 89.584610,435.715698 89.584610,438.728394 
	C86.659462,438.728394 83.757942,438.728394 80.131508,438.728394 
	C80.131508,436.796722 80.131508,434.731598 80.136200,432.205048 
z"/>
<path fill="#FFFFFF" opacity="1.000000" stroke="none" 
	d="
M500.999329,302.000000 
	C500.999329,269.534912 500.999329,237.569809 500.999329,204.999298 
	C508.462738,204.999298 515.742676,204.684219 522.979675,205.106094 
	C528.109863,205.405167 530.076294,203.864395 530.015930,197.790176 
	C529.945190,190.669281 529.999390,183.547134 529.999390,176.215958 
	C575.110474,176.215958 619.831177,176.215958 665.000610,176.215958 
	C665.000610,182.979507 664.995239,189.594315 665.002075,196.209122 
	C665.009399,203.319244 666.637451,204.997955 673.503540,204.999084 
	C680.143982,205.000153 686.784363,204.999298 693.711365,204.999298 
	C693.711365,250.297531 693.711365,295.351715 693.711365,341.000671 
	C686.857178,341.000671 679.927185,340.997833 672.997192,341.001526 
	C667.005066,341.004700 665.175049,342.665375 665.036133,348.818420 
	C664.882141,355.639374 665.000916,362.466461 665.000916,369.645599 
	C620.168518,369.645599 575.446899,369.645599 529.999390,369.645599 
	C529.999390,362.677917 530.012512,355.430634 529.995056,348.183380 
	C529.982361,342.922058 528.144226,341.024933 523.012390,341.006958 
	C515.870972,340.981934 508.729462,341.000671 500.999329,341.000671 
	C500.999329,328.017334 500.999329,315.258667 500.999329,302.000000 
M610.057312,343.611603 
	C628.134705,339.537140 641.007080,329.050629 648.685852,312.199738 
	C656.045471,296.049255 653.496338,280.490784 646.008728,265.135620 
	C634.767090,242.082169 619.890076,221.296356 605.621948,200.137070 
	C600.677612,192.804825 597.226807,193.121918 592.354370,200.553665 
	C584.898560,211.925751 576.909424,222.975708 569.972534,234.652969 
	C562.447571,247.320190 555.353882,260.308228 549.107544,273.641449 
	C546.257446,279.725159 544.158875,287.142853 544.795166,293.654968 
	C545.830566,304.251404 549.237976,314.549713 556.029358,323.449158 
	C566.624756,337.333466 581.473145,343.031677 597.793396,345.738190 
	C601.394226,346.335358 605.403076,344.472504 610.057312,343.611603 
z"/>
<path fill="#FFFFFF" opacity="1.000000" stroke="none" 
	d="
M501.000000,189.891998 
	C501.000000,185.109665 501.000000,180.815277 501.000000,176.262146 
	C507.021576,176.262146 512.749146,176.262146 518.740173,176.262146 
	C518.740173,182.359619 518.740173,188.419891 518.740173,194.741760 
	C512.970581,194.741760 507.243103,194.741760 501.000000,194.741760 
	C501.000000,193.257294 501.000000,191.818619 501.000000,189.891998 
z"/>
<path fill="#FFFFFF" opacity="1.000000" stroke="none" 
	d="
M693.960693,193.761292 
	C688.209778,194.612595 682.491821,194.983154 676.375122,195.379562 
	C676.375122,188.881485 676.375122,182.813751 676.375122,176.371613 
	C681.788940,176.371613 687.524902,176.371613 693.993713,176.371613 
	C693.993713,181.798157 693.993713,187.539337 693.960693,193.761292 
z"/>
<path fill="#FFFFFF" opacity="1.000000" stroke="none" 
	d="
M686.950928,370.000000 
	C683.159363,370.000000 679.857544,370.000000 676.280640,370.000000 
	C676.280640,364.016266 676.280640,358.289001 676.280640,352.278992 
	C681.987061,352.278992 687.714233,352.278992 693.722656,352.278992 
	C693.722656,357.990326 693.722656,363.717468 693.722656,370.000000 
	C691.639343,370.000000 689.540039,370.000000 686.950928,370.000000 
z"/>
<path fill="#FFFFFF" opacity="1.000000" stroke="none" 
	d="
M512.922424,352.000000 
	C515.055969,352.000000 516.704651,352.000000 518.676270,352.000000 
	C518.676270,357.893311 518.676270,363.623810 518.676270,369.679291 
	C513.102234,369.679291 507.371368,369.679291 501.318176,369.679291 
	C501.318176,364.095337 501.318176,358.366180 501.318176,352.000000 
	C504.926849,352.000000 508.682220,352.000000 512.922424,352.000000 
z"/>
<path fill="#FFFFFF" opacity="1.000000" stroke="none" 
	d="
M563.000000,783.000000 
	C551.192017,783.000000 539.884033,783.000000 528.000000,783.000000 
	C528.000000,777.332520 527.864136,771.895264 528.027649,766.467102 
	C528.391052,754.403442 527.677002,753.580933 515.293701,753.972168 
	C510.007721,754.139160 504.712097,754.000000 499.215240,754.000000 
	C499.215240,708.543152 499.215240,663.479553 499.215240,618.000000 
	C506.687256,618.000000 513.974609,618.029480 521.261597,617.990051 
	C526.515869,617.961609 527.957397,616.547485 527.988770,611.366394 
	C528.033020,604.070068 528.000000,596.773315 528.000000,589.240967 
	C573.405029,589.240967 618.468628,589.240967 664.000000,589.240967 
	C664.000000,596.961365 664.134094,604.578308 663.947632,612.187439 
	C663.842896,616.460327 665.528442,618.165466 669.806824,618.051941 
	C676.962097,617.862061 684.126099,618.000000 691.643066,618.000000 
	C691.643066,663.171204 691.643066,708.235657 691.643066,754.000000 
	C684.643860,754.000000 677.386475,754.163208 670.141052,753.939575 
	C665.693298,753.802368 663.799194,755.391296 663.938721,759.979309 
	C664.165894,767.449585 664.000000,774.931885 664.000000,783.000000 
	C630.348022,783.000000 596.924011,783.000000 563.000000,783.000000 
z"/>
<path fill="#FFFFFF" opacity="1.000000" stroke="none" 
	d="
M692.000000,602.890259 
	C692.000000,604.823547 692.000000,606.270569 692.000000,607.843140 
	C685.882446,607.843140 680.272522,607.843140 674.330811,607.843140 
	C674.330811,601.791138 674.330811,595.726562 674.330811,589.328918 
	C679.881592,589.328918 685.611877,589.328918 692.000000,589.328918 
	C692.000000,593.572388 692.000000,597.988220 692.000000,602.890259 
z"/>
<path fill="#FFFFFF" opacity="1.000000" stroke="none" 
	d="
M516.999756,592.170593 
	C517.000000,597.611511 517.000000,602.567139 517.000000,607.758057 
	C510.936401,607.758057 505.208588,607.758057 499.239166,607.758057 
	C499.239166,601.597534 499.239166,595.536865 499.239166,589.002502 
	C504.441376,589.002502 509.552673,588.883789 514.647278,589.122620 
	C515.469543,589.161194 516.217224,590.791077 516.999756,592.170593 
z"/>
<path fill="#FFFFFF" opacity="1.000000" stroke="none" 
	d="
M674.000000,773.990234 
	C674.000000,770.528320 674.000000,767.556580 674.000000,764.293518 
	C679.957642,764.293518 685.685425,764.293518 691.708435,764.293518 
	C691.708435,770.293884 691.708435,776.354797 691.708435,782.709595 
	C686.036560,782.709595 680.309631,782.709595 674.000000,782.709595 
	C674.000000,780.011475 674.000000,777.246033 674.000000,773.990234 
z"/>
<path fill="#FFFFFF" opacity="1.000000" stroke="none" 
	d="
M517.000000,770.082214 
	C517.000000,774.532776 517.000000,778.496948 517.000000,782.729065 
	C510.997437,782.729065 505.269257,782.729065 499.268372,782.729065 
	C499.268372,776.657471 499.268372,770.596985 499.268372,764.266479 
	C505.013092,764.266479 510.740692,764.266479 517.000000,764.266479 
	C517.000000,766.056335 517.000000,767.826111 517.000000,770.082214 
z"/>
<path fill="#FAF5F5" opacity="1.000000" stroke="none" 
	d="
M851.963623,668.093140 
	C856.241821,664.301941 860.713440,660.781982 865.569824,656.959106 
	C865.569824,660.724182 865.569824,664.209778 865.569824,668.364380 
	C861.217773,668.364380 856.687378,668.364380 851.963623,668.093140 
z"/>
<path fill="#FAF5F5" opacity="1.000000" stroke="none" 
	d="
M859.097595,707.163330 
	C856.539734,707.163330 854.449158,707.163330 851.070862,707.163330 
	C856.478699,702.922180 860.865479,699.481812 865.673218,695.711304 
	C865.673218,699.589661 865.673218,702.978882 865.673218,707.163330 
	C863.699768,707.163330 861.632324,707.163330 859.097595,707.163330 
z"/>
<path fill="#FAF5F5" opacity="1.000000" stroke="none" 
	d="
M445.493652,236.362640 
	C445.849243,240.018417 445.849243,243.491302 445.849243,247.201019 
	C441.040100,247.201019 436.476837,247.201019 431.325989,247.201019 
	C436.234680,243.284164 440.686371,239.731964 445.493652,236.362640 
z"/>
<path fill="#FAF5F5" opacity="1.000000" stroke="none" 
	d="
M440.113098,279.058350 
	C442.003052,277.552734 443.601715,276.265747 445.659180,274.609436 
	C445.659180,278.687836 445.659180,282.174683 445.659180,285.914703 
	C441.140167,285.914703 436.780792,285.914703 431.415405,285.914703 
	C434.642395,283.366669 437.232117,281.321838 440.113098,279.058350 
z"/>
<path fill="#FCFCFC" opacity="1.000000" stroke="none" 
	d="
M433.222900,479.294739 
	C426.269775,475.506836 425.060272,463.640198 429.326050,457.672852 
	C431.177094,455.083435 435.123291,452.575745 438.095825,452.601257 
	C441.085205,452.626862 445.101654,455.167206 446.801697,457.807373 
	C450.342346,463.306000 449.787018,469.594452 446.535553,475.317047 
	C443.875275,479.999176 440.335144,480.993713 433.222900,479.294739 
z"/>
<path fill="#FCFCFC" opacity="1.000000" stroke="none" 
	d="
M332.844421,72.028313 
	C324.324860,75.478104 318.118225,72.415092 316.952240,63.735252 
	C316.406952,59.675739 317.207703,55.185749 318.434296,51.210499 
	C319.582123,47.490463 322.977753,45.824474 327.103149,45.807838 
	C331.360809,45.790672 334.436615,47.449520 336.434784,51.187851 
	C339.838379,57.555557 338.477722,66.220909 332.844421,72.028313 
z"/>
<path fill="#FCFCFC" opacity="1.000000" stroke="none" 
	d="
M321.568512,479.998779 
	C312.104431,477.773560 310.918030,461.204987 317.526581,454.909790 
	C322.047974,450.602783 329.604767,451.686005 333.032257,457.109528 
	C336.165771,462.067810 335.876801,471.333344 332.481140,476.070618 
	C329.850250,479.740845 326.235382,480.735168 321.568512,479.998779 
z"/>
<path fill="#FCFCFC" opacity="1.000000" stroke="none" 
	d="
M204.966248,68.782852 
	C202.034622,63.247246 202.102493,57.856060 204.083221,52.543480 
	C205.998566,47.406158 209.560379,45.408890 214.975815,45.854969 
	C220.011505,46.269779 222.923569,49.421791 223.792160,53.962299 
	C224.459076,57.448467 224.427994,61.250504 223.811111,64.754280 
	C223.020020,69.247513 220.329620,72.606964 215.434891,73.521042 
	C211.027985,74.344017 207.669739,72.715088 204.966248,68.782852 
z"/>
<path fill="#FCFCFC" opacity="1.000000" stroke="none" 
	d="
M40.474159,476.317108 
	C37.441334,470.275146 37.479717,464.487762 39.965256,458.686249 
	C41.803638,454.395203 45.316719,452.246277 49.782280,452.272064 
	C54.253185,452.297913 58.495449,454.443085 59.398369,458.808411 
	C60.430294,463.797485 60.976803,469.507507 59.553127,474.249420 
	C56.924709,483.003937 46.825611,483.941284 40.474159,476.317108 
z"/>
<path fill="#FAF5F5" opacity="1.000000" stroke="none" 
	d="
M254.692657,479.756226 
	C251.794449,480.429535 249.215561,481.368652 246.679520,481.264496 
	C243.535950,481.135406 240.066910,480.331299 239.955093,476.159821 
	C239.853851,472.382690 242.465179,470.587280 245.860580,469.923157 
	C249.746414,469.163147 253.663422,468.562653 257.849182,467.844391 
	C258.099030,472.119202 259.534668,476.489746 254.692657,479.756226 
z"/>
<path fill="#FAF5F5" opacity="1.000000" stroke="none" 
	d="
M133.951538,74.287460 
	C132.107269,72.429634 129.106537,70.145607 129.489532,69.094406 
	C130.321564,66.810738 132.556702,64.249298 134.806015,63.444744 
	C138.780090,62.023262 143.192978,61.828529 147.423203,61.120148 
	C148.802399,71.787796 144.754532,75.864502 133.951538,74.287460 
z"/>
<path fill="#FAFCFE" opacity="1.000000" stroke="none" 
	d="
M779.961182,268.545380 
	C777.373596,261.708954 778.923767,255.685959 782.212158,250.055557 
	C787.134155,241.628311 792.311707,233.350311 797.845764,224.243271 
	C805.750122,235.373611 813.163025,245.641251 817.385925,257.730469 
	C819.499329,263.780548 816.172607,272.094757 810.629395,276.378571 
	C804.149536,281.386230 795.230225,282.627197 789.242798,278.429626 
	C785.714417,275.955963 783.134277,272.129700 779.961182,268.545380 
M812.853333,269.144775 
	C813.492615,266.942261 814.388977,264.768005 814.635498,262.522400 
	C814.725037,261.706787 813.405396,260.438049 812.439209,259.952545 
	C812.055176,259.759583 810.663574,260.982880 810.113159,261.814514 
	C807.996582,265.012695 805.951904,268.266541 804.066589,271.604767 
	C803.510620,272.589233 803.568176,273.920197 803.344604,275.092377 
	C804.544617,275.203796 806.177307,275.864227 806.863403,275.323578 
	C808.904236,273.715332 810.572876,271.634766 812.853333,269.144775 
z"/>
<path fill="#FAFCFE" opacity="1.000000" stroke="none" 
	d="
M388.263306,667.700562 
	C375.832092,670.195679 368.146912,667.315369 363.746735,657.458557 
	C362.058075,653.675720 361.078979,648.057983 362.668884,644.609985 
	C367.757385,633.574646 374.200073,623.163757 380.119995,612.511780 
	C380.807312,612.596191 381.494659,612.680542 382.181976,612.764893 
	C387.696960,622.346436 393.622559,631.720093 398.609894,641.568848 
	C403.463470,651.153503 400.352356,660.068359 391.164154,665.973206 
	C390.325439,666.512207 389.480194,667.041138 388.263306,667.700562 
M392.806244,651.952515 
	C391.092499,654.333496 389.251709,656.636475 387.720856,659.129761 
	C386.999634,660.304321 386.873718,661.844299 386.478088,663.218750 
	C387.949463,663.055969 390.142456,663.446472 390.765808,662.633423 
	C393.303864,659.323242 395.561798,655.746338 397.451721,652.028198 
	C397.913879,651.118958 396.590546,649.302063 396.088135,647.902527 
	C395.037659,648.994690 393.987183,650.086914 392.806244,651.952515 
z"/>
<path fill="#137CF2" opacity="1.000000" stroke="none" 
	d="
M609.640625,343.677032 
	C605.403076,344.472504 601.394226,346.335358 597.793396,345.738190 
	C581.473145,343.031677 566.624756,337.333466 556.029358,323.449158 
	C549.237976,314.549713 545.830566,304.251404 544.795166,293.654968 
	C544.158875,287.142853 546.257446,279.725159 549.107544,273.641449 
	C555.353882,260.308228 562.447571,247.320190 569.972534,234.652969 
	C576.909424,222.975708 584.898560,211.925751 592.354370,200.553665 
	C597.226807,193.121918 600.677612,192.804825 605.621948,200.137070 
	C619.890076,221.296356 634.767090,242.082169 646.008728,265.135620 
	C653.496338,280.490784 656.045471,296.049255 648.685852,312.199738 
	C641.007080,329.050629 628.134705,339.537140 609.640625,343.677032 
M560.331360,273.036621 
	C559.989441,273.974548 559.700500,274.935974 559.297607,275.846924 
	C553.934509,287.971985 554.615417,300.031891 560.955078,311.384521 
	C576.430420,339.096832 613.560486,342.339752 633.324768,317.446777 
	C641.788757,306.786469 646.161804,294.108582 640.435791,280.596771 
	C635.537598,269.038483 629.939575,257.685822 623.614929,246.846817 
	C616.234619,234.198608 607.729309,222.206848 599.340637,209.361526 
	C585.165100,230.279694 571.232971,250.269394 560.331360,273.036621 
z"/>
<path fill="#1C82F3" opacity="1.000000" stroke="none" 
	d="
M812.620117,269.441772 
	C810.572876,271.634766 808.904236,273.715332 806.863403,275.323578 
	C806.177307,275.864227 804.544617,275.203796 803.344604,275.092377 
	C803.568176,273.920197 803.510620,272.589233 804.066589,271.604767 
	C805.951904,268.266541 807.996582,265.012695 810.113159,261.814514 
	C810.663574,260.982880 812.055176,259.759583 812.439209,259.952545 
	C813.405396,260.438049 814.725037,261.706787 814.635498,262.522400 
	C814.388977,264.768005 813.492615,266.942261 812.620117,269.441772 
z"/>
<path fill="#1C82F3" opacity="1.000000" stroke="none" 
	d="
M392.871460,651.565796 
	C393.987183,650.086914 395.037659,648.994690 396.088135,647.902527 
	C396.590546,649.302063 397.913879,651.118958 397.451721,652.028198 
	C395.561798,655.746338 393.303864,659.323242 390.765808,662.633423 
	C390.142456,663.446472 387.949463,663.055969 386.478088,663.218750 
	C386.873718,661.844299 386.999634,660.304321 387.720856,659.129761 
	C389.251709,656.636475 391.092499,654.333496 392.871460,651.565796 
z"/>
<path fill="#FDFEFE" opacity="1.000000" stroke="none" 
	d="
M560.482361,272.682434 
	C571.232971,250.269394 585.165100,230.279694 599.340637,209.361526 
	C607.729309,222.206848 616.234619,234.198608 623.614929,246.846817 
	C629.939575,257.685822 635.537598,269.038483 640.435791,280.596771 
	C646.161804,294.108582 641.788757,306.786469 633.324768,317.446777 
	C613.560486,342.339752 576.430420,339.096832 560.955078,311.384521 
	C554.615417,300.031891 553.934509,287.971985 559.297607,275.846924 
	C559.700500,274.935974 559.989441,273.974548 560.482361,272.682434 
M635.626587,295.287109 
	C635.952820,291.426178 635.997803,287.446594 630.853455,287.102478 
	C626.154785,286.788116 625.455505,290.548553 624.947205,294.144562 
	C623.836304,302.004181 620.026917,308.154968 613.358398,312.525665 
	C610.132690,314.639893 607.791565,317.330048 610.679443,321.120087 
	C613.487305,324.805237 616.906372,323.358002 619.931763,321.206177 
	C628.611633,315.032593 633.851440,306.658539 635.626587,295.287109 
z"/>
<path fill="#137CF2" opacity="1.000000" stroke="none" 
	d="
M635.607910,295.705933 
	C633.851440,306.658539 628.611633,315.032593 619.931763,321.206177 
	C616.906372,323.358002 613.487305,324.805237 610.679443,321.120087 
	C607.791565,317.330048 610.132690,314.639893 613.358398,312.525665 
	C620.026917,308.154968 623.836304,302.004181 624.947205,294.144562 
	C625.455505,290.548553 626.154785,286.788116 630.853455,287.102478 
	C635.997803,287.446594 635.952820,291.426178 635.607910,295.705933 
z"/>
</svg>